<svg width="303" height="303" viewBox="0 0 303 303" fill="none" xmlns="http://www.w3.org/2000/svg">
<g clip-path="url(#clip0_1628_55053)">
<path fill-rule="evenodd" clip-rule="evenodd" d="M35.8414 135.481H4.72656V166.596H35.8414V197.707H66.9546V166.596H98.0679V135.481H66.9546V104.368H35.8414V135.481Z" fill="#8A8A8A"/>
<path fill-rule="evenodd" clip-rule="evenodd" d="M145.391 128.764H140.356L142.906 120.516L145.391 128.764ZM129.789 137.244H137.738L138.766 133.998H146.914L147.942 137.244H155.889L147.146 113.859H138.733L129.789 137.244ZM164.601 122.569C165.134 121.709 166.29 119.688 170.036 119.688C170.633 119.688 171.59 119.754 172.652 120.086C174.87 120.782 175.535 122.009 175.997 122.902C176.495 121.775 178.052 119.688 181.961 119.688C183.816 119.688 185.605 120.284 186.731 121.412C188.285 122.936 188.323 124.791 188.353 126.412V137.244H181.53V128.267C181.53 127.174 181.499 125.32 179.147 125.32C176.663 125.32 176.63 127.34 176.63 128.101V137.277H169.807V128.003C169.807 127.672 169.774 127.34 169.71 127.009C169.411 125.684 168.253 125.32 167.421 125.32C166.727 125.32 166.031 125.551 165.566 126.014C164.936 126.644 164.936 127.34 164.905 127.937V137.277H158.082V120.119H164.606V122.569H164.601ZM198.024 126.279C198.188 125.518 198.553 123.729 200.609 123.729C201.533 123.729 202.595 124.258 202.891 125.483C202.958 125.748 202.958 126.013 202.991 126.279H198.024ZM203.953 130.884C203.256 132.275 202.396 133.103 200.839 133.103C199.581 133.103 198.951 132.474 198.785 132.308C198.024 131.546 197.992 130.652 197.959 129.89H209.947C209.883 127.272 209.85 124.424 207.331 121.94C205.244 119.919 202.528 119.389 200.441 119.389C194.878 119.389 191.002 123 191.002 128.598C191.002 133.368 194.116 137.938 200.478 137.938C204.585 137.938 207.564 136.317 209.584 133.235L203.953 130.884ZM218.991 121.576C220.846 119.92 222.103 119.721 224.722 119.721V125.483C224.257 125.45 223.791 125.418 223.329 125.418C219.32 125.418 219.253 128.034 219.22 129.16V137.242H212.43V119.986H218.991V121.576ZM226.908 113.857H233.73V118.396H226.908V113.857ZM226.908 120.086H233.73V137.244H226.908V120.086ZM254.366 132.638C253.935 133.566 253.57 134.296 252.707 135.156C251.746 136.149 249.528 137.905 245.554 137.905C239.89 137.905 236.414 134.062 236.414 128.532C236.414 125.684 237.438 123.364 238.861 121.907C241.247 119.422 244.659 119.289 245.95 119.289C247.109 119.289 250.39 119.322 253.006 121.973C253.667 122.634 253.966 123.097 254.364 123.76L249.163 126.708C248.732 125.186 247.905 124.092 246.28 124.092C244.194 124.092 243.169 126.146 243.169 128.728C243.169 130.086 243.432 132.669 246.116 132.669C248.203 132.669 248.867 130.681 249.163 129.788L254.366 132.638ZM267.251 129.261C267.251 129.857 267.251 130.553 266.921 131.281C266.324 132.607 264.734 133.237 263.772 133.237C262.481 133.237 262.083 132.375 262.083 131.911C262.083 131.712 262.15 130.918 263.473 130.387C264.07 130.19 264.666 130.056 265.229 129.925C265.926 129.724 266.587 129.492 267.251 129.261ZM262.744 125.087C262.976 123.893 263.408 123.497 264.966 123.497C266.921 123.497 267.251 124.291 267.284 125.45C266.257 125.748 265.528 125.914 263.64 126.181C260.626 126.577 258.77 126.842 257.211 128.433C255.987 129.658 255.754 131.082 255.754 132.11C255.754 135.024 257.642 137.64 261.947 137.64C265.163 137.64 266.75 136.516 267.613 135.919V137.244H274.336C273.841 136.548 273.739 136.249 273.739 135.123V125.783C273.739 123.729 273.739 119.522 265.591 119.522C263.8 119.522 261.353 119.687 259.431 120.682C256.981 121.974 256.615 123.796 256.349 125.252L262.744 125.087ZM283.582 122.372C284.141 121.576 285.434 119.656 289.212 119.656C291.926 119.656 293.286 120.715 293.848 121.246C295.473 122.834 295.571 125.121 295.571 126.412V137.244H288.749V127.869C288.749 127.008 288.716 125.286 286.432 125.286C284.011 125.286 283.947 127.174 283.947 128.101V137.244H277.124V120.086H283.583V122.372H283.582ZM140.472 148.301C141.764 148.301 144.081 148.367 144.081 151.049C144.081 153.698 141.73 153.766 140.505 153.766H137.425V148.3H140.472V148.301ZM130.005 166.817H137.425V158.571H139.61L144.147 166.817H152.363L146.665 157.378C147.758 156.948 148.752 156.583 149.679 155.588C151.369 153.868 151.468 151.781 151.468 150.885C151.468 148.632 150.541 145.453 147.428 144.128C146.002 143.533 143.882 143.399 141.664 143.399H130.005V166.817ZM159.251 155.854C159.419 155.093 159.781 153.305 161.836 153.305C162.76 153.305 163.822 153.832 164.119 155.058C164.186 155.325 164.186 155.588 164.219 155.854H159.251ZM165.182 160.46C164.485 161.85 163.625 162.678 162.071 162.678C160.81 162.678 160.18 162.048 160.016 161.882C159.254 161.121 159.22 160.226 159.19 159.465H171.178C171.11 156.849 171.081 154.001 168.562 151.516C166.475 149.495 163.761 148.966 161.675 148.966C156.108 148.966 152.234 152.575 152.234 158.171C152.234 162.945 155.347 167.513 161.704 167.513C165.811 167.513 168.793 165.891 170.813 162.81L165.182 160.46ZM180.383 161.585C179.921 161.087 179.426 160.159 179.426 158.204C179.426 157.411 179.49 156.781 179.625 156.185C180.219 154.03 181.843 154.03 182.075 154.03C182.705 154.03 183.963 154.397 184.458 156.02C184.69 156.717 184.721 157.443 184.721 158.171C184.721 159.034 184.721 160.624 183.828 161.552C183.366 162.017 182.736 162.313 182.108 162.313C181.444 162.313 180.817 162.047 180.383 161.585ZM184.56 150.852C183.863 150.224 182.769 149.163 180.188 149.163C176.442 149.163 172.701 151.845 172.701 157.841C172.701 163.238 175.516 167.247 180.418 167.247C181.115 167.247 182.042 167.182 183.003 166.819C183.963 166.455 184.294 166.09 184.759 165.558V166.819H191.381V143.434H184.56V150.852ZM225.831 160.79C225.234 161.917 224.672 162.976 223.546 164.101C221.16 166.454 217.815 167.546 214.47 167.546C206.123 167.546 202.347 161.254 202.347 155.257C202.347 148.964 206.552 142.571 214.47 142.571C218.014 142.571 221.391 143.83 223.842 146.348C224.836 147.374 225.299 148.17 225.797 149.097L219.604 152.176C219.007 150.786 217.881 148.301 214.766 148.301C213.145 148.301 212.117 149.063 211.617 149.561C209.864 151.25 209.864 153.899 209.864 154.826C209.864 158.306 211.155 161.585 214.799 161.585C218.244 161.585 219.272 158.538 219.535 157.742L225.831 160.79ZM234.043 151.151C235.902 149.494 237.158 149.295 239.774 149.295V155.058C239.309 155.025 238.847 154.991 238.385 154.991C234.376 154.991 234.308 157.607 234.275 158.737V166.817H227.486V149.561H234.043V151.151ZM250.936 153.734C254.051 153.637 254.115 157.082 254.115 158.107C254.115 160.689 253.354 162.711 250.969 162.711C248.189 162.711 247.791 159.829 247.791 158.171C247.791 156.249 248.353 153.802 250.936 153.734ZM251.135 148.931C244.808 148.898 241.001 152.74 241.001 158.373C241.001 162.976 243.849 167.478 250.77 167.478C257.264 167.478 261.005 163.672 261.005 158.271C261.005 155.555 259.946 152.971 258.322 151.414C256.998 150.158 254.615 148.964 251.135 148.931ZM265.942 160.557C266.571 161.187 267.2 161.751 268.523 162.313C269.75 162.808 270.678 162.876 271.24 162.876C272.069 162.876 273.031 162.576 273.031 161.817C273.031 160.953 272.003 160.789 271.307 160.687C270.71 160.587 269.288 160.357 267.731 159.894C266.139 159.429 262.992 158.502 262.992 154.858C262.992 153.333 263.689 151.945 264.718 150.95C266.737 149.03 269.653 148.962 270.776 148.962C272.07 148.962 273.361 149.128 274.654 149.426C277.007 149.99 277.998 150.719 278.962 151.447L275.28 154.792C274.124 154.063 272.699 153.17 270.877 153.17C270.61 153.17 269.42 153.17 269.42 154.063C269.42 154.693 269.882 154.792 272.167 155.354C275.215 156.051 275.943 156.217 276.772 156.645C278.495 157.576 279.455 159.163 279.455 161.118C279.455 164.496 276.637 167.477 271.307 167.477C266.402 167.477 263.587 165.227 262.132 164.035L265.942 160.557ZM284.292 160.557C285.016 161.323 285.898 161.922 286.877 162.313C288.1 162.808 289.027 162.876 289.59 162.876C290.416 162.876 291.381 162.576 291.381 161.817C291.381 160.953 290.353 160.789 289.657 160.687C289.06 160.587 287.638 160.357 286.081 159.894C284.489 159.429 281.345 158.502 281.345 154.858C281.345 153.333 282.039 151.945 283.068 150.95C285.087 149.03 288.003 148.962 289.126 148.962C290.417 148.962 291.711 149.128 293.004 149.426C295.357 149.99 296.351 150.719 297.309 151.447L293.633 154.792C292.474 154.063 291.052 153.17 289.228 153.17C288.962 153.17 287.771 153.17 287.771 154.063C287.771 154.693 288.236 154.792 290.519 155.354C293.566 156.051 294.294 156.217 295.123 156.645C296.847 157.576 297.807 159.163 297.807 161.118C297.807 164.496 294.992 167.477 289.659 167.477C284.757 167.477 281.942 165.227 280.486 164.035L284.292 160.557Z" fill="#8A8A8A"/>
</g>
<defs>
<clipPath id="clip0_1628_55053">
<rect width="301.977" height="301.977" fill="white" transform="translate(0.265625 0.0493164)"/>
</clipPath>
</defs>
</svg>
