<svg width="1077" height="925" viewBox="0 0 1077 925" fill="none" xmlns="http://www.w3.org/2000/svg">
<rect x="0.578125" y="0.191406" width="1075.53" height="924.051" rx="45.4451" fill="#040404"/>
<rect x="1.48703" y="1.10031" width="1073.72" height="922.233" rx="44.5362" stroke="white" stroke-opacity="0.3" stroke-width="1.8178"/>
<path d="M332.681 553.18C326.315 556.338 322.289 562.83 322.289 569.936V672.392C322.289 679.498 326.315 685.99 332.681 689.148L440.692 742.736C445.931 745.335 452.083 745.334 457.321 742.735L565.289 689.149C571.653 685.99 575.678 679.499 575.678 672.394V569.934C575.678 562.829 571.653 556.338 565.289 553.179L457.321 499.593C452.083 496.994 445.931 496.993 440.692 499.592L332.681 553.18Z" fill="url(#paint0_linear_1628_55243)" fill-opacity="0.8"/>
<path d="M332.685 303C326.317 306.157 322.289 312.651 322.289 319.758V422.248C322.289 429.356 326.317 435.849 332.685 439.006L440.696 492.56C445.933 495.156 452.081 495.155 457.317 492.558L565.284 439.007C571.651 435.849 575.678 429.356 575.678 422.25V319.757C575.678 312.65 571.651 306.157 565.284 302.999L457.317 249.448C452.081 246.851 445.933 246.851 440.696 249.447L332.685 303Z" fill="url(#paint1_linear_1628_55243)" fill-opacity="0.8"/>
<path d="M586.088 215.639C579.72 218.796 575.691 225.289 575.691 232.397V295.668C575.691 302.773 579.717 309.265 586.082 312.423L654.545 346.397C659.785 348.997 665.939 348.997 671.178 346.395L739.599 312.424C745.962 309.265 749.986 302.774 749.986 295.67V232.395C749.986 225.288 745.959 218.796 739.592 215.638L671.172 181.698C665.936 179.101 659.787 179.1 654.551 181.696L586.088 215.639Z" fill="url(#paint2_linear_1628_55243)" fill-opacity="0.8"/>
<path d="M585.442 427.479C579.079 430.638 575.055 437.129 575.055 444.233V507.509C575.055 514.615 579.082 521.108 585.448 524.266L653.868 558.205C659.104 560.802 665.253 560.803 670.489 558.207L738.952 524.265C745.32 521.107 749.349 514.614 749.349 507.506V444.236C749.349 437.13 745.323 430.638 738.958 427.48L670.495 393.506C665.256 390.906 659.101 390.907 653.862 393.508L585.442 427.479Z" fill="url(#paint3_linear_1628_55243)" fill-opacity="0.7"/>
<defs>
<linearGradient id="paint0_linear_1628_55243" x1="448.983" y1="495.467" x2="448.983" y2="746.861" gradientUnits="userSpaceOnUse">
<stop stop-color="white"/>
<stop offset="1" stop-color="#A7A7A7"/>
</linearGradient>
<linearGradient id="paint1_linear_1628_55243" x1="448.983" y1="245.326" x2="448.983" y2="496.68" gradientUnits="userSpaceOnUse">
<stop stop-color="white"/>
<stop offset="1" stop-color="#A7A7A7"/>
</linearGradient>
<linearGradient id="paint2_linear_1628_55243" x1="662.839" y1="177.576" x2="662.839" y2="350.524" gradientUnits="userSpaceOnUse">
<stop stop-color="white"/>
<stop offset="1" stop-color="#A7A7A7"/>
</linearGradient>
<linearGradient id="paint3_linear_1628_55243" x1="662.202" y1="389.379" x2="662.202" y2="562.327" gradientUnits="userSpaceOnUse">
<stop stop-color="white"/>
<stop offset="1" stop-color="#A7A7A7"/>
</linearGradient>
</defs>
</svg>
