<svg width="1448" height="1274" viewBox="0 0 1448 1274" fill="none" xmlns="http://www.w3.org/2000/svg">
<path d="M864.274 113.722L732.144 187.705C726.859 191.228 719.813 190.339 714.529 187.705L584.143 112.833C571.813 105.787 571.813 88.1718 584.143 81.1258L714.529 4.50943C719.813 0.98644 726.859 0.98644 733.016 4.50943L865.163 82.0153C876.604 89.0613 876.604 106.676 864.274 113.722ZM864.274 967.141L732.144 889.635C726.859 886.112 719.813 886.112 713.639 889.635L583.271 966.252C570.941 973.298 570.941 990.913 583.271 997.959L713.639 1072.81C718.924 1076.34 725.97 1076.34 731.254 1072.81L863.402 998.848C876.604 991.802 876.604 974.187 864.274 967.141ZM1416.6 502.124L1284.47 424.618C1279.18 421.095 1272.14 421.095 1265.96 424.618L1135.6 501.234C1123.27 508.28 1123.27 525.895 1135.6 532.941L1265.96 607.796C1271.25 611.319 1278.3 611.319 1283.58 607.796L1415.73 533.813C1428.06 526.767 1428.06 509.152 1416.6 502.124ZM311.948 493.316L179.819 415.81C174.534 412.287 167.488 412.287 161.314 415.81L31.8182 492.427C19.4877 499.473 19.4877 517.088 31.8182 524.133L162.204 598.988C167.488 602.511 174.534 602.511 179.819 598.988L311.948 525.006C324.279 517.96 324.279 500.362 311.948 493.316Z" fill="#C1ED00"/>
<path d="M882.796 307.473L770.043 376.171C756.823 384.106 739.208 374.409 739.208 359.445V224.7C739.208 217.654 742.731 210.608 748.887 207.085L861.658 139.258C874.861 131.34 892.476 141.02 892.476 156.873V290.747C891.604 297.793 888.081 303.95 882.796 307.473ZM892.476 1174.98V1041.11C892.476 1025.26 875.75 1015.58 861.658 1023.49L748.887 1091.32C742.731 1094.84 739.208 1101.89 739.208 1108.94V1243.68C739.208 1259.54 756.823 1269.21 770.043 1260.42L881.907 1191.73C888.081 1189.08 891.604 1182.03 892.476 1174.98ZM1443.93 709.966V576.092C1443.93 560.239 1427.19 550.559 1413.09 558.477L1300.34 626.303C1294.17 629.826 1290.64 636.872 1290.64 643.918V778.664C1290.64 794.518 1308.26 804.197 1321.48 795.39L1433.36 726.709C1440.41 724.058 1443.93 717.012 1443.93 709.966ZM340.15 702.048V568.174C340.15 552.321 323.425 542.624 309.333 550.559L196.58 618.368C190.406 621.891 186.883 628.937 186.883 635.983V770.729C186.883 786.582 204.498 796.279 217.718 787.472L329.581 718.773C335.755 715.25 340.15 709.094 340.15 702.048Z" fill="#C0A6FF"/>
<path d="M555.981 291.619V151.589C555.981 137.497 570.963 129.579 582.404 136.625L700.459 207.085C705.743 210.608 709.266 215.892 709.266 222.049V362.968C709.266 377.06 694.285 384.978 681.955 377.932L564.789 306.6C559.504 303.949 555.981 297.793 555.981 291.619ZM564.789 1191.73L681.955 1263.06C693.396 1270.1 709.266 1262.19 709.266 1248.09V1107.17C709.266 1101 705.743 1094.84 700.459 1092.19L582.404 1021.73C570.963 1014.69 555.981 1023.49 555.981 1036.71V1176.74C555.981 1182.92 559.504 1188.2 564.789 1191.73ZM1116.24 726.709L1233.39 798.04C1244.85 805.086 1260.7 797.151 1260.7 783.059V642.157C1260.7 635.983 1257.18 629.826 1251.89 627.175L1133.86 556.715C1122.4 549.669 1107.43 558.477 1107.43 571.697V711.727C1108.31 717.901 1110.96 723.186 1116.24 726.709ZM12.4637 717.901L129.629 789.233C141.088 796.279 156.941 788.344 156.941 774.252V633.349C156.941 627.175 153.418 621.019 148.134 618.368L30.0787 547.908C18.6377 540.862 3.65625 549.669 3.65625 562.889V702.92C4.54572 709.094 7.17925 715.25 12.4637 717.901Z" fill="#8A8A8A"/>
<path d="M483.744 964.494L425.614 930.154C417.679 925.742 412.394 917.823 409.761 909.016C407.11 900.208 408.871 891.401 413.284 883.466C419.44 872.897 430.899 866.74 442.34 866.74C448.514 866.74 454.688 868.502 459.972 871.135L518.101 905.493C533.955 915.172 539.239 936.31 530.432 952.164C524.275 962.733 512.817 968.907 501.376 968.907C495.202 968.907 489.028 967.145 483.744 964.494ZM421.202 886.989C417.679 893.163 416.807 900.208 418.568 906.365C420.33 912.539 424.725 918.695 430.009 922.218L488.156 956.576C491.679 959.21 496.091 960.099 501.376 960.099C510.183 960.099 518.991 955.687 523.386 947.769C530.432 935.438 526.037 920.457 514.578 913.411L456.449 879.071C452.926 876.42 448.514 875.548 443.229 875.548C433.532 874.658 425.614 879.943 421.202 886.989ZM396.541 930.154L338.394 895.796C330.476 891.401 325.191 883.466 322.54 874.658C319.907 865.851 321.668 857.043 326.063 849.125C332.237 838.556 343.696 832.382 355.137 832.382C361.311 832.382 367.467 834.144 372.752 836.795L430.899 871.135C446.752 880.832 452.037 901.97 443.229 917.823C437.055 928.392 425.614 934.549 414.156 934.549C407.999 934.549 401.825 932.787 396.541 930.154ZM333.999 852.648C330.476 858.805 329.586 865.851 331.348 872.024C333.109 878.181 337.522 884.355 342.806 887.878L400.953 922.218C404.476 924.869 408.871 925.742 414.156 925.742C422.963 925.742 431.771 921.346 436.183 913.411C443.229 901.081 438.817 886.117 427.376 879.071L369.229 844.713C365.706 842.079 361.311 841.19 356.026 841.19C346.329 840.318 338.394 845.602 333.999 852.648ZM1059.86 465.136L1001.71 430.778C993.793 426.383 988.508 418.448 985.857 409.64C983.224 400.833 984.985 392.025 989.38 384.107C995.554 373.538 1007.01 367.365 1018.45 367.365C1024.63 367.365 1030.78 369.126 1036.07 371.777L1094.22 406.117C1110.07 415.814 1115.35 436.952 1106.55 452.806C1100.37 463.375 1088.93 469.531 1077.47 469.531C1071.32 469.531 1065.14 468.659 1059.86 465.136ZM997.316 388.502C993.793 394.676 992.903 401.722 994.665 407.879C996.426 414.053 1000.84 420.209 1006.12 423.732L1064.27 458.09C1067.79 460.724 1072.19 461.613 1077.47 461.613C1086.28 461.613 1095.09 457.201 1099.5 449.283C1106.55 436.952 1102.13 421.971 1090.69 414.925L1032.55 380.584C1029.02 377.933 1024.63 377.061 1019.34 377.061C1010.54 376.172 1001.71 380.584 997.316 388.502ZM973.527 430.778L915.397 396.438C907.462 392.025 902.177 384.107 899.527 375.3C896.893 366.492 898.654 357.685 903.067 349.75C909.223 339.181 920.682 333.024 932.123 333.024C938.297 333.024 944.453 334.786 949.738 337.419L1007.88 371.777C1023.74 381.456 1029.02 402.594 1020.22 418.448C1014.06 429.017 1002.6 435.191 991.142 435.191C984.096 435.191 978.811 434.301 973.527 430.778ZM910.113 354.162C906.59 360.319 905.7 367.364 907.462 373.538C909.223 379.695 913.636 385.869 918.92 389.392L977.05 423.732C980.573 426.383 984.985 427.255 990.27 427.255C999.077 427.255 1007.88 422.86 1012.3 414.925C1019.34 402.594 1014.93 387.63 1003.49 380.584L945.343 346.227C941.82 343.593 937.407 342.704 932.123 342.704C923.315 341.832 914.508 346.227 910.113 354.162ZM370.99 423.732L428.248 386.741C436.183 381.456 444.991 380.584 453.798 382.346C462.606 384.107 470.541 389.392 474.936 397.31C481.11 407.007 481.982 420.209 476.698 430.778C474.064 436.063 469.652 440.475 464.367 443.998L407.11 480.99C391.256 491.559 370.118 486.274 360.421 470.421C354.265 460.724 353.375 447.521 358.66 436.952C362.183 431.668 365.706 427.255 370.99 423.732ZM467.89 402.594C464.367 396.438 458.211 392.915 452.037 391.153C444.991 389.392 438.817 391.153 432.66 394.676L375.403 431.668C371.88 434.301 368.357 437.824 366.595 441.347C362.183 449.283 363.072 458.962 368.357 466.898C376.275 478.339 391.256 481.862 403.587 474.816L460.844 437.824C464.367 435.191 467.89 431.668 469.652 428.145C473.175 419.337 473.175 409.64 467.89 402.594ZM440.578 362.08L497.853 325.089C505.771 319.804 514.578 318.932 523.386 320.694C532.193 322.455 540.129 327.74 544.524 335.658C550.698 345.355 551.587 358.557 546.303 369.126C543.652 374.41 539.239 378.823 533.955 382.346L476.698 419.337C460.844 429.906 439.706 424.622 430.009 408.768C423.853 399.071 422.963 385.869 428.248 375.3C431.771 370.015 435.294 364.731 440.578 362.08ZM537.478 340.07C533.955 333.896 527.798 330.373 521.624 328.612C514.578 326.85 508.422 328.612 502.248 332.135L444.991 369.126C441.468 371.777 437.945 375.3 436.183 378.823C431.771 386.741 432.66 396.438 437.945 404.356C445.88 415.814 460.844 419.337 473.175 412.291L530.432 375.3C533.955 372.649 537.478 369.126 539.239 365.603C542.762 357.685 542.762 347.988 537.478 340.07ZM917.159 905.493L975.288 870.263C983.224 865.851 992.031 864.089 1000.84 866.74C1009.65 868.502 1016.69 874.658 1021.98 882.594C1028.15 893.162 1028.15 905.493 1022.87 916.062C1020.22 921.346 1015.82 925.741 1010.54 929.264L952.389 964.494C936.535 974.191 915.397 968.907 905.701 953.053C899.527 942.484 899.526 930.154 904.828 919.585C907.462 912.539 911.874 908.126 917.159 905.493ZM1014.93 886.989C1011.41 880.832 1006.12 876.42 999.077 875.548C992.903 873.786 985.857 874.658 979.701 878.181L921.554 913.411C918.031 916.062 914.508 918.695 912.746 923.108C908.351 931.026 908.351 940.723 913.636 948.641C920.682 960.971 936.535 964.494 948.866 957.448L1007.01 922.218C1010.54 919.585 1014.06 916.934 1015.82 912.539C1019.34 903.731 1019.34 894.035 1014.93 886.989ZM988.508 844.713L1046.64 809.483C1054.57 805.088 1063.38 803.326 1072.19 805.96C1081 807.721 1088.04 813.895 1093.33 821.813C1099.5 832.382 1099.5 844.713 1094.22 855.282C1091.56 860.566 1087.17 864.979 1081.89 868.502L1023.74 903.732C1007.88 913.411 986.747 908.127 977.05 892.273C970.893 881.704 970.893 869.374 976.178 858.805C978.811 852.648 983.224 848.236 988.508 844.713ZM1086.28 826.226C1082.76 820.052 1077.47 815.657 1070.43 814.767C1064.27 813.006 1057.22 813.895 1051.05 817.418L992.903 852.648C989.38 855.282 985.857 857.933 984.096 862.328C979.701 870.263 979.701 879.943 984.985 887.878C992.031 900.208 1007.88 903.732 1020.22 896.685L1078.36 861.456C1081.89 858.805 1085.41 856.171 1087.17 851.759C1090.69 843.841 1090.69 834.144 1086.28 826.226Z" fill="#C1ED00" stroke="#C1ED00" stroke-width="4.40404" stroke-miterlimit="10"/>
<path d="M864.274 113.722L732.144 187.705C726.859 191.228 719.813 190.339 714.529 187.705L584.143 112.833C571.813 105.787 571.813 88.1718 584.143 81.1258L714.529 4.50943C719.813 0.98644 726.859 0.98644 733.016 4.50943L865.163 82.0153C876.604 89.0613 876.604 106.676 864.274 113.722ZM864.274 967.141L732.144 889.635C726.859 886.112 719.813 886.112 713.639 889.635L583.271 966.252C570.941 973.298 570.941 990.913 583.271 997.959L713.639 1072.81C718.924 1076.34 725.97 1076.34 731.254 1072.81L863.402 998.848C876.604 991.802 876.604 974.187 864.274 967.141ZM1416.6 502.124L1284.47 424.618C1279.18 421.095 1272.14 421.095 1265.96 424.618L1135.6 501.234C1123.27 508.28 1123.27 525.895 1135.6 532.941L1265.96 607.796C1271.25 611.319 1278.3 611.319 1283.58 607.796L1415.73 533.813C1428.06 526.767 1428.06 509.152 1416.6 502.124ZM311.948 493.316L179.819 415.81C174.534 412.287 167.488 412.287 161.314 415.81L31.8182 492.427C19.4877 499.473 19.4877 517.088 31.8182 524.133L162.204 598.988C167.488 602.511 174.534 602.511 179.819 598.988L311.948 525.006C324.279 517.96 324.279 500.362 311.948 493.316Z" fill="#C1ED00"/>
<path d="M882.796 307.473L770.043 376.171C756.823 384.106 739.208 374.409 739.208 359.445V224.7C739.208 217.654 742.731 210.608 748.887 207.085L861.658 139.258C874.861 131.34 892.476 141.02 892.476 156.873V290.747C891.604 297.793 888.081 303.95 882.796 307.473ZM892.476 1174.98V1041.11C892.476 1025.26 875.75 1015.58 861.658 1023.49L748.887 1091.32C742.731 1094.84 739.208 1101.89 739.208 1108.94V1243.68C739.208 1259.54 756.823 1269.21 770.043 1260.42L881.907 1191.73C888.081 1189.08 891.604 1182.03 892.476 1174.98ZM1443.93 709.966V576.092C1443.93 560.239 1427.19 550.559 1413.09 558.477L1300.34 626.303C1294.17 629.826 1290.64 636.872 1290.64 643.918V778.664C1290.64 794.518 1308.26 804.197 1321.48 795.39L1433.36 726.709C1440.41 724.058 1443.93 717.012 1443.93 709.966ZM340.15 702.048V568.174C340.15 552.321 323.425 542.624 309.333 550.559L196.58 618.368C190.406 621.891 186.883 628.937 186.883 635.983V770.729C186.883 786.582 204.498 796.279 217.718 787.472L329.581 718.773C335.755 715.25 340.15 709.094 340.15 702.048Z" fill="#C0A6FF"/>
<path d="M555.981 291.619V151.589C555.981 137.497 570.963 129.579 582.404 136.625L700.459 207.085C705.743 210.608 709.266 215.892 709.266 222.049V362.968C709.266 377.06 694.285 384.978 681.955 377.932L564.789 306.6C559.504 303.949 555.981 297.793 555.981 291.619ZM564.789 1191.73L681.955 1263.06C693.396 1270.1 709.266 1262.19 709.266 1248.09V1107.17C709.266 1101 705.743 1094.84 700.459 1092.19L582.404 1021.73C570.963 1014.69 555.981 1023.49 555.981 1036.71V1176.74C555.981 1182.92 559.504 1188.2 564.789 1191.73ZM1116.24 726.709L1233.39 798.04C1244.85 805.086 1260.7 797.151 1260.7 783.059V642.157C1260.7 635.983 1257.18 629.826 1251.89 627.175L1133.86 556.715C1122.4 549.669 1107.43 558.477 1107.43 571.697V711.727C1108.31 717.901 1110.96 723.186 1116.24 726.709ZM12.4637 717.901L129.629 789.233C141.088 796.279 156.941 788.344 156.941 774.252V633.349C156.941 627.175 153.418 621.019 148.134 618.368L30.0787 547.908C18.6377 540.862 3.65625 549.669 3.65625 562.889V702.92C4.54572 709.094 7.17925 715.25 12.4637 717.901Z" fill="#8A8A8A"/>
<path d="M483.744 964.494L425.614 930.154C417.679 925.742 412.394 917.823 409.761 909.016C407.11 900.208 408.871 891.401 413.284 883.466C419.44 872.897 430.899 866.74 442.34 866.74C448.514 866.74 454.688 868.502 459.972 871.135L518.101 905.493C533.955 915.172 539.239 936.31 530.432 952.164C524.275 962.733 512.817 968.907 501.376 968.907C495.202 968.907 489.028 967.145 483.744 964.494ZM421.202 886.989C417.679 893.163 416.807 900.208 418.568 906.365C420.33 912.539 424.725 918.695 430.009 922.218L488.156 956.576C491.679 959.21 496.091 960.099 501.376 960.099C510.183 960.099 518.991 955.687 523.386 947.769C530.432 935.438 526.037 920.457 514.578 913.411L456.449 879.071C452.926 876.42 448.514 875.548 443.229 875.548C433.532 874.658 425.614 879.943 421.202 886.989ZM396.541 930.154L338.394 895.796C330.476 891.401 325.191 883.466 322.54 874.658C319.907 865.851 321.668 857.043 326.063 849.125C332.237 838.556 343.696 832.382 355.137 832.382C361.311 832.382 367.467 834.144 372.752 836.795L430.899 871.135C446.752 880.832 452.037 901.97 443.229 917.823C437.055 928.392 425.614 934.549 414.156 934.549C407.999 934.549 401.825 932.787 396.541 930.154ZM333.999 852.648C330.476 858.805 329.586 865.851 331.348 872.024C333.109 878.181 337.522 884.355 342.806 887.878L400.953 922.218C404.476 924.869 408.871 925.742 414.156 925.742C422.963 925.742 431.771 921.346 436.183 913.411C443.229 901.081 438.817 886.117 427.376 879.071L369.229 844.713C365.706 842.079 361.311 841.19 356.026 841.19C346.329 840.318 338.394 845.602 333.999 852.648ZM1059.86 465.136L1001.71 430.778C993.793 426.383 988.508 418.448 985.857 409.64C983.224 400.833 984.985 392.025 989.38 384.107C995.554 373.538 1007.01 367.365 1018.45 367.365C1024.63 367.365 1030.78 369.126 1036.07 371.777L1094.22 406.117C1110.07 415.814 1115.35 436.952 1106.55 452.806C1100.37 463.375 1088.93 469.531 1077.47 469.531C1071.32 469.531 1065.14 468.659 1059.86 465.136ZM997.316 388.502C993.793 394.676 992.903 401.722 994.665 407.879C996.426 414.053 1000.84 420.209 1006.12 423.732L1064.27 458.09C1067.79 460.724 1072.19 461.613 1077.47 461.613C1086.28 461.613 1095.09 457.201 1099.5 449.283C1106.55 436.952 1102.13 421.971 1090.69 414.925L1032.55 380.584C1029.02 377.933 1024.63 377.061 1019.34 377.061C1010.54 376.172 1001.71 380.584 997.316 388.502ZM973.527 430.778L915.397 396.438C907.462 392.025 902.177 384.107 899.527 375.3C896.893 366.492 898.654 357.685 903.067 349.75C909.223 339.181 920.682 333.024 932.123 333.024C938.297 333.024 944.453 334.786 949.738 337.419L1007.88 371.777C1023.74 381.456 1029.02 402.594 1020.22 418.448C1014.06 429.017 1002.6 435.191 991.142 435.191C984.096 435.191 978.811 434.301 973.527 430.778ZM910.113 354.162C906.59 360.319 905.7 367.364 907.462 373.538C909.223 379.695 913.636 385.869 918.92 389.392L977.05 423.732C980.573 426.383 984.985 427.255 990.27 427.255C999.077 427.255 1007.88 422.86 1012.3 414.925C1019.34 402.594 1014.93 387.63 1003.49 380.584L945.343 346.227C941.82 343.593 937.407 342.704 932.123 342.704C923.315 341.832 914.508 346.227 910.113 354.162ZM370.99 423.732L428.248 386.741C436.183 381.456 444.991 380.584 453.798 382.346C462.606 384.107 470.541 389.392 474.936 397.31C481.11 407.007 481.982 420.209 476.698 430.778C474.064 436.063 469.652 440.475 464.367 443.998L407.11 480.99C391.256 491.559 370.118 486.274 360.421 470.421C354.265 460.724 353.375 447.521 358.66 436.952C362.183 431.668 365.706 427.255 370.99 423.732ZM467.89 402.594C464.367 396.438 458.211 392.915 452.037 391.153C444.991 389.392 438.817 391.153 432.66 394.676L375.403 431.668C371.88 434.301 368.357 437.824 366.595 441.347C362.183 449.283 363.072 458.962 368.357 466.898C376.275 478.339 391.256 481.862 403.587 474.816L460.844 437.824C464.367 435.191 467.89 431.668 469.652 428.145C473.175 419.337 473.175 409.64 467.89 402.594ZM440.578 362.08L497.853 325.089C505.771 319.804 514.578 318.932 523.386 320.694C532.193 322.455 540.129 327.74 544.524 335.658C550.698 345.355 551.587 358.557 546.303 369.126C543.652 374.41 539.239 378.823 533.955 382.346L476.698 419.337C460.844 429.906 439.706 424.622 430.009 408.768C423.853 399.071 422.963 385.869 428.248 375.3C431.771 370.015 435.294 364.731 440.578 362.08ZM537.478 340.07C533.955 333.896 527.798 330.373 521.624 328.612C514.578 326.85 508.422 328.612 502.248 332.135L444.991 369.126C441.468 371.777 437.945 375.3 436.183 378.823C431.771 386.741 432.66 396.438 437.945 404.356C445.88 415.814 460.844 419.337 473.175 412.291L530.432 375.3C533.955 372.649 537.478 369.126 539.239 365.603C542.762 357.685 542.762 347.988 537.478 340.07ZM917.159 905.493L975.288 870.263C983.224 865.851 992.031 864.089 1000.84 866.74C1009.65 868.502 1016.69 874.658 1021.98 882.594C1028.15 893.162 1028.15 905.493 1022.87 916.062C1020.22 921.346 1015.82 925.741 1010.54 929.264L952.389 964.494C936.535 974.191 915.397 968.907 905.701 953.053C899.527 942.484 899.526 930.154 904.828 919.585C907.462 912.539 911.874 908.126 917.159 905.493ZM1014.93 886.989C1011.41 880.832 1006.12 876.42 999.077 875.548C992.903 873.786 985.857 874.658 979.701 878.181L921.554 913.411C918.031 916.062 914.508 918.695 912.746 923.108C908.351 931.026 908.351 940.723 913.636 948.641C920.682 960.971 936.535 964.494 948.866 957.448L1007.01 922.218C1010.54 919.585 1014.06 916.934 1015.82 912.539C1019.34 903.731 1019.34 894.035 1014.93 886.989ZM988.508 844.713L1046.64 809.483C1054.57 805.088 1063.38 803.326 1072.19 805.96C1081 807.721 1088.04 813.895 1093.33 821.813C1099.5 832.382 1099.5 844.713 1094.22 855.282C1091.56 860.566 1087.17 864.979 1081.89 868.502L1023.74 903.732C1007.88 913.411 986.747 908.127 977.05 892.273C970.893 881.704 970.893 869.374 976.178 858.805C978.811 852.648 983.224 848.236 988.508 844.713ZM1086.28 826.226C1082.76 820.052 1077.47 815.657 1070.43 814.767C1064.27 813.006 1057.22 813.895 1051.05 817.418L992.903 852.648C989.38 855.282 985.857 857.933 984.096 862.328C979.701 870.263 979.701 879.943 984.985 887.878C992.031 900.208 1007.88 903.732 1020.22 896.685L1078.36 861.456C1081.89 858.805 1085.41 856.171 1087.17 851.759C1090.69 843.841 1090.69 834.144 1086.28 826.226Z" fill="#8A8A8A" stroke="#8A8A8A" stroke-width="4.40404" stroke-miterlimit="10"/>
<g clip-path="url(#clip0_1628_55132)">
<path d="M136.954 521.03C137.493 520.49 138.235 520.176 139.022 520.176H210.361C211.665 520.176 212.316 521.749 211.395 522.671L197.302 536.763C196.763 537.303 196.021 537.617 195.235 537.617H123.895C122.592 537.617 121.94 536.044 122.861 535.122L136.954 521.03Z" fill="#040404"/>
<path d="M136.954 468.413C137.516 467.873 138.257 467.559 139.022 467.559H210.361C211.665 467.559 212.316 469.132 211.395 470.053L197.302 484.146C196.763 484.685 196.021 485 195.235 485H123.895C122.592 485 121.94 483.427 122.861 482.505L136.954 468.413Z" fill="#040404"/>
<path d="M197.302 494.551C196.763 494.012 196.021 493.697 195.235 493.697H123.895C122.592 493.697 121.94 495.271 122.861 496.192L136.954 510.285C137.493 510.824 138.235 511.139 139.022 511.139H210.361C211.665 511.139 212.316 509.565 211.395 508.644L197.302 494.551Z" fill="#040404"/>
</g>
<g clip-path="url(#clip1_1628_55132)">
<path d="M1275.98 455.656L1275.15 458.467V540.015L1275.98 540.841L1313.83 518.465L1275.98 455.656Z" fill="#040404"/>
<path d="M1275.99 455.656L1238.13 518.465L1275.99 540.841V501.26V455.656Z" fill="#040404"/>
<path d="M1275.97 548.007L1275.51 548.575V577.624L1275.97 578.985L1313.85 525.643L1275.97 548.007Z" fill="#040404"/>
<path d="M1275.99 578.985V548.007L1238.13 525.643L1275.99 578.985Z" fill="#040404"/>
<path d="M1275.98 540.841L1313.83 518.465L1275.98 501.26V540.841Z" fill="#040404"/>
<path d="M1238.13 518.465L1275.99 540.841V501.26L1238.13 518.465Z" fill="#040404"/>
</g>
<g clip-path="url(#clip2_1628_55132)">
<path d="M750.224 92.2061C748.888 90.4349 747.324 88.8709 745.563 87.545C744.32 86.6128 742.974 85.7946 741.544 85.1213C742.104 84.417 742.611 83.6608 743.056 82.884C744.652 80.1392 745.553 76.9593 745.553 73.5619C745.553 70.1646 744.641 66.9847 743.056 64.2399C741.42 61.4122 739.058 59.0506 736.231 57.414C734.78 56.575 733.216 55.9329 731.57 55.4978V45.5957H722.247V54.9178H717.586V45.5957H708.264V54.9178H694.281V64.2399H698.942V120.172H694.281V129.494H708.264V138.816H717.586V129.494H722.247V138.816H731.57V129.494C733.165 129.494 734.729 129.339 736.231 129.028C739.669 128.334 742.839 126.874 745.553 124.844C747.314 123.518 748.888 121.944 750.214 120.183C753.135 116.288 754.875 111.441 754.875 106.2C754.875 100.958 753.145 96.1006 750.224 92.2061ZM708.275 64.2399H726.919C728.618 64.2399 730.213 64.6956 731.58 65.4932C734.366 67.0986 736.241 70.1128 736.241 73.5619C736.241 77.0111 734.366 80.0252 731.58 81.6307C730.213 82.4283 728.618 82.884 726.919 82.884H708.275V64.2399ZM736.241 119.375C734.78 119.893 733.216 120.172 731.58 120.172H708.275V92.2061H731.58C733.216 92.2061 734.78 92.4857 736.241 93.0036C741.679 94.9302 745.563 100.109 745.563 106.189C745.563 112.269 741.679 117.459 736.241 119.375Z" fill="#040404"/>
</g>
<path d="M733.8 968.301V957.155H759.273V940.188H689.925V957.155H715.397V968.301C694.707 969.257 679.133 973.354 679.133 978.261C679.133 983.169 694.707 987.265 715.397 988.221V1023.88H733.821V988.221C754.49 987.265 770.023 983.169 770.023 978.261C770.002 973.354 754.469 969.257 733.8 968.301ZM733.821 985.206C733.301 985.227 730.639 985.393 724.692 985.393C719.93 985.393 716.603 985.269 715.418 985.206V985.227C697.14 984.416 683.479 981.235 683.479 977.429C683.479 973.624 697.12 970.443 715.418 969.632V982.025C716.624 982.108 720.034 982.316 724.775 982.316C730.452 982.316 733.301 982.087 733.842 982.025V969.59C752.099 970.401 765.719 973.583 765.719 977.388C765.677 981.193 752.057 984.375 733.821 985.206Z" fill="#040404"/>
<defs>
<clipPath id="clip0_1628_55132">
<rect width="90.8902" height="70.0582" fill="white" transform="translate(121.672 467.559)"/>
</clipPath>
<clipPath id="clip1_1628_55132">
<rect width="75.7419" height="123.358" fill="white" transform="translate(1238.11 455.656)"/>
</clipPath>
<clipPath id="clip2_1628_55132">
<rect width="60.5935" height="97.6055" fill="white" transform="translate(694.281 43.4043)"/>
</clipPath>
</defs>
</svg>
