<svg width="531" height="168" viewBox="0 0 531 168" fill="none" xmlns="http://www.w3.org/2000/svg">
<rect x="0.175781" y="0.980469" width="166.632" height="166.632" rx="60.5935" fill="#C1ED00"/>
<path d="M203.111 113.296V53.9148H241.794V63.1613H214.563V79.0247H236.364V88.0168H214.563V113.296H203.111ZM265.942 114.314C262.492 114.314 259.523 113.607 257.035 112.194C254.603 110.723 252.737 108.602 251.436 105.831C250.135 103.004 249.485 99.5255 249.485 95.3971V70.5416H260.937V94.2094C260.937 97.6592 261.644 100.261 263.058 102.014C264.528 103.767 266.762 104.644 269.759 104.644C271.682 104.644 273.379 104.219 274.849 103.371C276.32 102.466 277.479 101.194 278.327 99.5538C279.232 97.8572 279.685 95.7929 279.685 93.3611V70.5416H291.052V113.296H281.042L280.109 106.34C278.864 108.772 277.026 110.723 274.595 112.194C272.163 113.607 269.279 114.314 265.942 114.314ZM302.267 113.296V70.5416H312.362L313.211 77.4978C314.511 75.1225 316.349 73.1997 318.725 71.7293C321.156 70.2588 324.041 69.5236 327.377 69.5236C330.94 69.5236 333.938 70.2588 336.369 71.7293C338.801 73.1997 340.639 75.3487 341.883 78.1764C343.184 81.0041 343.835 84.4822 343.835 88.6106V113.296H332.467V89.7134C332.467 86.3202 331.732 83.7187 330.262 81.909C328.848 80.0992 326.642 79.1944 323.645 79.1944C321.722 79.1944 319.997 79.6468 318.47 80.5517C317 81.4565 315.84 82.7573 314.992 84.4539C314.144 86.0939 313.72 88.1016 313.72 90.4769V113.296H302.267ZM373.626 114.314C369.724 114.314 366.218 113.353 363.107 111.43C360.053 109.507 357.65 106.849 355.896 103.456C354.143 100.063 353.267 96.2454 353.267 92.0038C353.267 87.6492 354.143 83.8035 355.896 80.4668C357.706 77.0736 360.166 74.4156 363.277 72.4927C366.444 70.5133 369.978 69.5236 373.881 69.5236C376.935 69.5236 379.621 70.0892 381.94 71.2203C384.258 72.3513 386.125 73.9631 387.538 76.0556V52.2181H398.991V113.296H388.811L387.538 107.443C386.69 108.631 385.616 109.762 384.315 110.836C383.071 111.911 381.572 112.759 379.819 113.381C378.066 114.003 376.001 114.314 373.626 114.314ZM376.341 104.304C378.603 104.304 380.582 103.795 382.279 102.777C384.032 101.703 385.389 100.232 386.351 98.3661C387.312 96.4999 387.793 94.3508 387.793 91.919C387.793 89.4872 387.312 87.3381 386.351 85.4719C385.389 83.6056 384.032 82.1634 382.279 81.1455C380.582 80.071 378.603 79.5337 376.341 79.5337C374.192 79.5337 372.241 80.071 370.487 81.1455C368.734 82.1634 367.349 83.6056 366.331 85.4719C365.369 87.3381 364.889 89.4589 364.889 91.8342C364.889 94.3225 365.369 96.4999 366.331 98.3661C367.349 100.232 368.706 101.703 370.403 102.777C372.156 103.795 374.135 104.304 376.341 104.304ZM424.633 114.314C421.07 114.314 418.129 113.749 415.81 112.618C413.492 111.43 411.767 109.875 410.636 107.952C409.561 105.973 409.024 103.795 409.024 101.42C409.024 98.8186 409.674 96.5281 410.975 94.5488C412.332 92.5694 414.34 91.0141 416.998 89.8831C419.712 88.752 423.106 88.1864 427.178 88.1864H437.781C437.781 86.0939 437.499 84.3691 436.933 83.0118C436.368 81.5979 435.491 80.5517 434.303 79.873C433.116 79.1944 431.532 78.855 429.553 78.855C427.404 78.855 425.566 79.3358 424.039 80.2972C422.568 81.202 421.664 82.6159 421.324 84.5387H410.211C410.494 81.4848 411.484 78.855 413.18 76.6494C414.934 74.3873 417.224 72.6341 420.052 71.3899C422.936 70.1457 426.131 69.5236 429.638 69.5236C433.653 69.5236 437.131 70.2023 440.072 71.5596C443.013 72.9169 445.275 74.868 446.858 77.4129C448.442 79.9578 449.234 83.0966 449.234 86.8291V113.296H439.563L438.29 106.764C437.668 107.895 436.933 108.913 436.085 109.818C435.237 110.723 434.247 111.515 433.116 112.194C431.985 112.872 430.712 113.381 429.298 113.721C427.885 114.116 426.329 114.314 424.633 114.314ZM427.347 105.492C428.818 105.492 430.118 105.237 431.249 104.728C432.437 104.163 433.455 103.428 434.303 102.523C435.152 101.561 435.802 100.487 436.255 99.2993C436.763 98.0551 437.103 96.7261 437.272 95.3122V95.2274H428.535C426.782 95.2274 425.34 95.4536 424.209 95.9061C423.134 96.3019 422.342 96.8957 421.833 97.6875C421.324 98.4793 421.07 99.3841 421.07 100.402C421.07 101.533 421.324 102.466 421.833 103.202C422.342 103.937 423.077 104.502 424.039 104.898C425 105.294 426.103 105.492 427.347 105.492ZM460.172 113.296V70.5416H471.624V113.296H460.172ZM465.94 64.6883C463.904 64.6883 462.207 64.0945 460.85 62.9068C459.549 61.6626 458.899 60.1074 458.899 58.2411C458.899 56.3749 459.549 54.8479 460.85 53.6603C462.207 52.4161 463.904 51.794 465.94 51.794C468.033 51.794 469.729 52.4161 471.03 53.6603C472.387 54.8479 473.066 56.3749 473.066 58.2411C473.066 60.1074 472.387 61.6626 471.03 62.9068C469.729 64.0945 468.033 64.6883 465.94 64.6883ZM483.196 113.296V70.5416H493.291L494.139 77.4978C495.44 75.1225 497.278 73.1997 499.653 71.7293C502.085 70.2588 504.969 69.5236 508.306 69.5236C511.869 69.5236 514.866 70.2588 517.298 71.7293C519.73 73.1997 521.568 75.3487 522.812 78.1764C524.113 81.0041 524.763 84.4822 524.763 88.6106V113.296H513.396V89.7134C513.396 86.3202 512.66 83.7187 511.19 81.909C509.776 80.0992 507.571 79.1944 504.573 79.1944C502.65 79.1944 500.925 79.6468 499.399 80.5517C497.928 81.4565 496.769 82.7573 495.92 84.4539C495.072 86.0939 494.648 88.1016 494.648 90.4769V113.296H483.196Z" fill="white"/>
<path d="M54.7148 100.597V120.659L72.0966 130.697L89.4719 120.659V100.597L72.0966 90.5601L54.7148 100.597Z" fill="#040404"/>
<path d="M54.7148 60.6578V80.7261L72.0966 90.757L89.4719 80.7261V60.6578L72.0966 50.627L54.7148 60.6578Z" fill="#040404"/>
<path d="M89.4883 46.707V60.5132L101.445 67.4195L113.396 60.5132V46.707L101.445 39.8071L89.4883 46.707Z" fill="#040404"/>
<path d="M89.3867 80.5279V94.3341L101.337 101.234L113.295 94.3341V80.5279L101.337 73.6216L89.3867 80.5279Z" fill="#040404"/>
</svg>
