<svg width="267" height="268" viewBox="0 0 267 268" fill="none" xmlns="http://www.w3.org/2000/svg">
<g clip-path="url(#clip0_1628_55060)">
<path fill-rule="evenodd" clip-rule="evenodd" d="M26.8297 130.421C30.437 126.554 35.444 125.092 40.3144 125.092C47.4419 125.092 52.6077 129.331 52.6077 137.541V160.707C52.9349 163.315 55.7042 163.522 58.2291 163.522L58.6888 164.965H38.7531L39.355 163.522C40.3475 163.522 44.7679 162.905 44.7679 160.707V139.312C44.7679 133.177 42.9015 128.035 36.2268 128.035C33.0682 128.035 28.5181 131.082 26.8297 133.759V160.707C27.1459 162.492 29.1393 163.522 31.6642 163.522L32.0839 164.965H13.1877L13.7578 163.522C14.7504 163.522 18.0581 162.06 18.0581 160.707V122.655C18.0581 108.493 17.9449 105.124 15.7816 105.124L11.9922 104.424V103.35C17.4037 102.809 21.4182 102.268 26.8311 101.365L26.8297 130.421ZM157.669 160.707C157.985 162.492 159.977 163.522 162.503 163.522L162.924 164.965H144.027L144.598 163.522C145.591 163.522 148.896 162.06 148.896 160.707V146.444C148.896 132.281 148.785 128.913 146.621 128.913L142.833 128.214V127.14C148.244 126.599 152.259 126.058 157.67 125.155L157.669 160.707ZM82.5645 140.89C82.6086 139.227 82.5714 137.903 82.5714 137.903C82.5714 136.568 82.7011 127.516 77.215 127.516C75.1402 127.516 72.0023 127.516 71.4542 128.888C69.6334 133.44 69.3876 135.334 65.4173 135.334C63.7939 135.334 62.2601 134.162 62.2601 132.448C62.2601 124.362 71.3162 125.734 77.3517 125.734C85.1708 125.734 90.2469 130.945 90.2469 137.723V155.5C89.9211 163.115 94.0364 165.325 97.2433 159.752L98.563 159.666C97.5345 168.826 83.5253 166.337 83.2934 159.712C79.9581 164.417 76.3688 166.41 71.3176 166.41C66.0855 166.41 60.0003 162.71 60.0003 157.569C60.0003 143.255 73.4601 148.709 82.5645 140.89ZM82.4623 143.668C80.404 146.547 68.5731 149.275 68.5731 155.911C68.5731 158.616 69.944 163.25 73.5112 163.25C80.0961 163.25 81.467 159.821 82.5714 155.911C82.5727 155.911 82.7964 143.201 82.4623 143.668ZM213.364 140.89C213.406 139.227 213.369 137.903 213.369 137.903C213.369 136.568 213.502 127.516 208.011 127.516C205.938 127.516 202.8 127.516 202.252 128.888C200.43 133.44 200.184 135.334 196.215 135.334C194.592 135.334 193.058 134.162 193.058 132.448C193.058 124.362 202.115 125.734 208.149 125.734C215.969 125.734 221.046 130.945 221.046 137.723V155.5C220.72 163.115 224.834 165.325 228.04 159.752L229.361 159.666C228.331 168.826 214.323 166.337 214.091 159.712C210.756 164.417 207.164 166.41 202.114 166.41C196.88 166.41 190.798 162.71 190.798 157.569C190.798 143.255 204.258 148.709 213.364 140.89ZM213.259 143.668C211.202 146.547 199.369 149.275 199.369 155.911C199.369 158.616 200.742 163.25 204.309 163.25C210.894 163.25 212.266 159.821 213.368 155.911C213.369 155.911 213.593 143.201 213.259 143.668Z" fill="#8A8A8A"/>
<path fill-rule="evenodd" clip-rule="evenodd" d="M149.914 106.834C149.914 104.175 152.061 102.202 154.633 102.202C157.291 102.202 159.437 104.175 159.437 106.834C159.437 109.58 157.29 111.467 154.633 111.467C152.061 111.467 149.914 109.494 149.914 106.834Z" fill="#8A8A8A"/>
<path fill-rule="evenodd" clip-rule="evenodd" d="M189.98 159.612C188.336 162.905 186.346 166.407 179.282 166.407C171.794 166.407 168.715 163.157 168.715 156.031V129.24L164.517 129.211L164.644 127.569C168.737 126.382 172.545 121.701 174.186 115.167H175.99V126.533H188.234V129.828H176.608V153.506C176.608 158.649 177.02 163.11 182.161 163.11C185.728 163.11 187.375 161.67 188.161 159.667L189.98 159.612ZM254.618 159.612C252.971 162.905 250.983 166.407 243.919 166.407C236.431 166.407 233.353 163.157 233.353 156.031V129.24L229.155 129.211L229.282 127.569C233.375 126.382 237.18 121.701 238.824 115.167H240.628V126.533H252.869V129.828H241.245V153.506C241.245 158.649 241.658 163.11 246.799 163.11C250.366 163.11 252.01 161.67 252.798 159.667L254.618 159.612ZM110.918 130.667L110.831 101.216C105.91 102.054 100.961 102.716 95.9922 103.201V104.275L99.7816 104.975C101.946 104.975 102.058 108.342 102.058 122.506L102.249 152.244C102.249 157.387 101.978 162.439 101.707 166.858H104.053L109.321 162.394L109.406 162.369C113.196 164.534 115.274 166.383 119.695 166.383C133.226 166.383 140.889 157 140.889 143.921C140.889 134.991 132.705 125.068 122.782 125.068C117.459 125.067 112.769 126.803 110.918 130.667ZM110.813 134.087C111.738 131.297 116.221 127.826 120.381 127.826C129.131 127.826 131.022 140.044 131.022 147.258C131.022 154.834 126.871 163.406 117.85 163.406C115.323 163.406 112.888 162.271 110.813 160.917V134.087Z" fill="#8A8A8A"/>
</g>
<defs>
<clipPath id="clip0_1628_55060">
<rect width="266.099" height="266.099" fill="white" transform="translate(0.265625 0.98877)"/>
</clipPath>
</defs>
</svg>
