<svg width="74" height="74" viewBox="0 0 74 74" fill="none" xmlns="http://www.w3.org/2000/svg">
<path d="M33.7218 45.7691H39.7811C41.3882 45.7691 42.9294 45.1307 44.0657 43.9943C45.2021 42.858 45.8405 41.3168 45.8405 39.7097C45.8405 38.1027 45.2021 36.5615 44.0657 35.4251C42.9294 34.2888 41.3882 33.6504 39.7811 33.6504H30.6921C28.8743 33.6504 27.3595 34.2563 26.4506 35.4682L9.48438 51.8284" stroke="#C1ED00" stroke-width="6.05935" stroke-linecap="round" stroke-linejoin="round"/>
<path d="M21.6016 63.9481L26.449 59.7065C27.3579 58.4947 28.8728 57.8887 30.6906 57.8887H42.8093C46.1419 57.8887 49.1716 56.6768 51.2924 54.2531L65.2289 40.9225C66.398 39.8177 67.0803 38.2937 67.1258 36.6857C67.1712 35.0778 66.5761 33.5177 65.4712 32.3486C64.3664 31.1794 62.8424 30.4971 61.2345 30.4516C59.6265 30.4062 58.0664 31.0013 56.8973 32.1062L44.1726 43.9219" stroke="#C1ED00" stroke-width="6.05935" stroke-linecap="round" stroke-linejoin="round"/>
<path d="M6.45312 48.7988L24.6312 66.9769" stroke="#C1ED00" stroke-width="6.05935" stroke-linecap="round" stroke-linejoin="round"/>
<path d="M48.8798 36.3768C53.7322 36.3768 57.6659 32.4431 57.6659 27.5907C57.6659 22.7383 53.7322 18.8047 48.8798 18.8047C44.0274 18.8047 40.0938 22.7383 40.0938 27.5907C40.0938 32.4431 44.0274 36.3768 48.8798 36.3768Z" stroke="#C1ED00" stroke-width="6.05935" stroke-linecap="round" stroke-linejoin="round"/>
<path d="M18.5734 24.5628C23.5931 24.5628 27.6624 20.4935 27.6624 15.4738C27.6624 10.4541 23.5931 6.38477 18.5734 6.38477C13.5537 6.38477 9.48438 10.4541 9.48438 15.4738C9.48438 20.4935 13.5537 24.5628 18.5734 24.5628Z" stroke="#C1ED00" stroke-width="6.05935" stroke-linecap="round" stroke-linejoin="round"/>
</svg>
