<svg width="74" height="74" viewBox="0 0 74 74" fill="none" xmlns="http://www.w3.org/2000/svg">
<path d="M64.9228 20.9647C66.5246 19.3633 67.4247 17.1912 67.425 14.9261C67.4253 12.6611 66.5257 10.4887 64.9243 8.88692C63.3229 7.2851 61.1508 6.38505 58.8857 6.38477C56.6207 6.38448 54.4483 7.28399 52.8465 8.8854L12.4125 49.3285C11.7091 50.0299 11.1888 50.8935 10.8977 51.8432L6.89546 65.0283C6.81715 65.2903 6.81124 65.5686 6.87834 65.8337C6.94544 66.0988 7.08305 66.3408 7.27658 66.5341C7.4701 66.7273 7.71232 66.8645 7.97753 66.9312C8.24274 66.9978 8.52106 66.9915 8.78294 66.9128L21.9711 62.9136C22.9199 62.625 23.7834 62.108 24.4857 61.4078L64.9228 20.9647Z" stroke="#C1ED00" stroke-width="6.05935" stroke-linecap="round" stroke-linejoin="round"/>
<path d="M46.2188 15.4727L58.3374 27.5914" stroke="#C1ED00" stroke-width="6.05935" stroke-linecap="round" stroke-linejoin="round"/>
</svg>
