<svg width="74" height="74" viewBox="0 0 74 74" fill="none" xmlns="http://www.w3.org/2000/svg">
<path d="M48.9023 48.7988H67.0804" stroke="#C1ED00" stroke-width="6.05935" stroke-linecap="round" stroke-linejoin="round"/>
<path d="M57.9922 39.7109V57.889" stroke="#C1ED00" stroke-width="6.05935" stroke-linecap="round" stroke-linejoin="round"/>
<path d="M64.0537 30.6218V24.5625C64.0526 23.4999 63.7721 22.4563 63.2403 21.5363C62.7086 20.6164 61.9442 19.8524 61.024 19.3211L39.8163 7.20242C38.8951 6.6706 37.8502 6.39062 36.7866 6.39062C35.723 6.39062 34.6781 6.6706 33.7569 7.20242L12.5492 19.3211C11.629 19.8524 10.8646 20.6164 10.3329 21.5363C9.80112 22.4563 9.52062 23.4999 9.51953 24.5625V48.7999C9.52062 49.8624 9.80112 50.9061 10.3329 51.826C10.8646 52.746 11.629 53.5099 12.5492 54.0412L33.7569 66.1599C34.6781 66.6917 35.723 66.9717 36.7866 66.9717C37.8502 66.9717 38.8951 66.6917 39.8163 66.1599L45.8756 62.7061" stroke="#C1ED00" stroke-width="6.05935" stroke-linecap="round" stroke-linejoin="round"/>
<path d="M23.1523 13.2598L50.4194 28.8626" stroke="#C1ED00" stroke-width="6.05935" stroke-linecap="round" stroke-linejoin="round"/>
<path d="M10.3945 21.5312L36.783 36.6796L63.1715 21.5312" stroke="#C1ED00" stroke-width="6.05935" stroke-linecap="round" stroke-linejoin="round"/>
<path d="M36.7852 66.9764V36.6797" stroke="#C1ED00" stroke-width="6.05935" stroke-linecap="round" stroke-linejoin="round"/>
</svg>
