<svg width="533" height="113" viewBox="0 0 533 113" fill="none" xmlns="http://www.w3.org/2000/svg">
<path d="M149.516 45.261C149.322 45.65 149.03 45.9418 148.738 46.2336C148.447 46.4281 148.058 46.5253 147.669 46.5253C147.182 46.5253 146.793 46.4281 146.404 46.1363C145.918 45.8445 145.432 45.65 144.848 45.261C144.167 44.9692 143.584 44.6774 142.903 44.3856C142.125 44.0938 141.249 43.9966 140.374 43.9966C139.012 43.8993 137.748 44.2883 136.678 45.0664C135.9 45.7473 135.414 46.8171 135.511 47.887C135.511 48.5678 135.706 49.2486 136.289 49.8322C136.873 50.4158 137.456 50.8048 138.234 51.0966C139.11 51.4856 139.985 51.8747 140.958 52.0692C141.93 52.361 143 52.75 144.07 53.0418C145.14 53.4308 146.21 53.8199 147.182 54.4034C148.155 54.8897 149.127 55.5706 149.906 56.3486C150.684 57.1267 151.364 58.0993 151.851 59.1692C152.337 60.4336 152.629 61.7952 152.629 63.2541C152.629 64.9076 152.337 66.561 151.753 68.2144C151.17 69.6733 150.295 71.035 149.127 72.2021C147.863 73.3692 146.404 74.3418 144.848 74.9254C143 75.6062 141.055 75.898 139.11 75.898C137.942 75.898 136.678 75.8007 135.511 75.509C134.344 75.3144 133.079 74.9254 131.912 74.4391C130.745 74.0501 129.675 73.4665 128.703 72.8829C127.73 72.2994 126.855 71.6185 126.077 70.8405L128.703 66.7555C128.897 66.4637 129.189 66.172 129.481 65.9774C129.87 65.7829 130.162 65.6857 130.648 65.6857C131.232 65.6857 131.718 65.8802 132.204 66.172C132.69 66.4637 133.371 66.8528 133.955 67.2418C134.733 67.6309 135.414 68.0199 136.289 68.3117C137.262 68.7007 138.332 68.798 139.401 68.798C140.763 68.8952 142.027 68.5062 143.097 67.7281C144.07 66.8528 144.556 65.6856 144.459 64.4213C144.459 63.6432 144.264 62.8651 143.681 62.2815C143.195 61.698 142.514 61.2117 141.736 60.9199C140.86 60.5308 139.985 60.2391 139.012 59.9473C138.04 59.6555 136.97 59.3637 135.9 59.0719C134.83 58.6829 133.76 58.2939 132.788 57.8076C131.815 57.3213 130.842 56.6404 130.064 55.8623C129.189 54.987 128.605 53.9171 128.119 52.8473C127.633 51.3884 127.341 49.9295 127.341 48.3733C127.341 46.9144 127.633 45.5527 128.216 44.1911C128.8 42.8294 129.675 41.5651 130.745 40.5924C131.912 39.5226 133.274 38.6472 134.83 38.0637C136.581 37.3829 138.526 37.0911 140.374 37.0911C141.541 37.0911 142.611 37.1883 143.778 37.3829C144.848 37.5774 145.918 37.8692 146.89 38.1609C147.863 38.55 148.738 38.939 149.711 39.4253C150.586 39.9116 151.267 40.4952 152.045 41.0788L149.516 45.261ZM174.901 75.509C174.318 75.509 173.734 75.4117 173.248 75.2172C172.762 74.9254 172.47 74.4391 172.275 73.9528L171.692 72.4939C171.011 73.0774 170.427 73.5638 169.844 73.9528C169.26 74.3418 168.58 74.7309 167.996 75.0227C167.315 75.3144 166.634 75.509 165.954 75.7035C165.175 75.898 164.3 75.898 163.522 75.898C162.452 75.898 161.285 75.8007 160.215 75.4117C159.34 75.1199 158.464 74.6336 157.686 74.0501C157.006 73.4665 156.422 72.6884 156.13 71.8131C155.741 70.8405 155.547 69.7706 155.547 68.7007C155.547 67.7281 155.838 66.7555 156.227 65.8802C156.811 64.8103 157.686 63.8377 158.659 63.1569C160.118 62.1843 161.674 61.5035 163.327 61.1144C165.759 60.5308 168.288 60.2391 170.817 60.3363V59.1692C170.914 58.0021 170.622 56.7377 169.844 55.7651C169.163 55.0843 168.191 54.6952 167.121 54.6952C166.343 54.6952 165.564 54.7925 164.884 54.987C164.3 55.1815 163.814 55.376 163.327 55.6678C162.841 55.9596 162.452 56.1541 161.966 56.3486C161.48 56.5432 160.896 56.6404 160.41 56.6404C159.923 56.6404 159.437 56.5432 159.048 56.2514C158.659 55.9596 158.367 55.6678 158.173 55.2788L156.714 52.8473C158.27 51.4856 160.021 50.4158 161.966 49.7349C164.008 49.0541 166.051 48.6651 168.191 48.6651C169.649 48.6651 171.108 48.8596 172.47 49.4432C173.734 49.9295 174.804 50.6103 175.68 51.5829C176.555 52.5555 177.236 53.6254 177.722 54.8897C178.208 56.2514 178.403 57.613 178.403 59.0719V75.4117H174.901V75.509ZM165.856 70.7432C166.732 70.7432 167.704 70.5487 168.482 70.2569C169.358 69.8679 170.136 69.2843 170.817 68.5062V64.9076C169.552 64.9076 168.191 65.0048 166.926 65.1993C166.051 65.2966 165.273 65.5884 164.495 65.9774C164.008 66.172 163.522 66.561 163.23 67.0473C163.036 67.4363 162.841 67.8254 162.841 68.3117C162.744 68.9925 163.036 69.7706 163.619 70.2569C164.3 70.6459 165.078 70.8405 165.856 70.7432ZM197.855 75.509H190.755L180.543 49.2486H187.059C187.545 49.2486 188.032 49.3459 188.421 49.6377C188.81 49.8322 189.004 50.2212 189.199 50.6103L192.797 62.3788C193.089 63.3514 193.381 64.2267 193.575 65.1993C193.77 66.172 194.062 67.0473 194.256 67.9226C194.451 67.0473 194.645 66.0747 194.937 65.1993C195.229 64.324 195.521 63.3514 195.812 62.3788L199.606 50.6103C199.703 50.2212 199.995 49.8322 200.384 49.6377C200.773 49.3459 201.259 49.2486 201.745 49.2486H207.97L197.855 75.509ZM221.878 48.8596C223.532 48.8596 225.088 49.1514 226.644 49.6377C228.006 50.124 229.27 50.9021 230.34 51.9719C231.41 53.0418 232.285 54.3062 232.771 55.7651C233.355 57.4185 233.647 59.0719 233.647 60.8226C233.647 61.3089 233.647 61.7952 233.55 62.2815C233.55 62.5733 233.452 62.8651 233.258 63.1569C233.161 63.3514 232.966 63.5459 232.674 63.6432C232.382 63.7404 232.091 63.7404 231.799 63.7404H216.626C216.723 65.4911 217.404 67.2418 218.669 68.5062C219.836 69.4788 221.295 70.0624 222.851 69.9651C223.629 69.9651 224.407 69.8679 225.185 69.6733C225.769 69.4788 226.352 69.187 226.936 68.8952C227.422 68.6035 227.908 68.4089 228.395 68.1172C228.784 67.9226 229.27 67.8254 229.756 67.8254C230.34 67.8254 230.826 68.0199 231.215 68.5062L233.452 71.3268C232.674 72.2021 231.799 72.9802 230.826 73.5638C229.951 74.1473 228.978 74.6336 227.908 74.9254C226.936 75.2172 225.963 75.509 224.991 75.6062C224.018 75.7035 223.143 75.8007 222.17 75.8007C220.419 75.8007 218.669 75.509 217.015 74.9254C215.459 74.3418 214 73.4665 212.833 72.2994C211.569 71.035 210.596 69.5761 210.013 67.9226C209.234 65.9774 208.943 63.935 208.943 61.7952C208.943 60.1418 209.234 58.3911 209.818 56.8349C210.985 53.7226 213.417 51.1938 216.432 49.9295C218.182 49.2486 220.03 48.8596 221.878 48.8596ZM222.073 54.3062C220.808 54.2089 219.544 54.6952 218.571 55.5706C217.599 56.6404 217.015 57.9048 216.918 59.2665H226.741C226.741 58.6829 226.644 58.0021 226.547 57.4185C226.352 56.8349 226.158 56.3486 225.769 55.8623C225.38 55.376 224.893 54.987 224.31 54.6952C223.532 54.4034 222.754 54.3062 222.073 54.3062ZM257.865 75.898C256.698 75.898 255.628 75.7035 254.558 75.3144C252.71 74.6336 251.251 73.1747 250.667 71.3268C250.278 70.3542 250.181 69.2843 250.181 68.2144V54.6952H247.944C247.166 54.6952 246.485 54.1117 246.485 53.3336V50.124L250.667 49.3459L252.224 42.9267C252.418 42.1486 253.099 41.5651 253.974 41.7596H258.059V49.4432H264.478V54.7925H258.059V67.8254C258.059 68.4089 258.156 68.8952 258.545 69.2843C258.837 69.6733 259.324 69.8679 259.81 69.8679C260.102 69.8679 260.296 69.8679 260.491 69.7706C260.685 69.6733 260.88 69.6733 260.977 69.5761C261.074 69.4788 261.269 69.4788 261.366 69.3816C261.463 69.2843 261.658 69.2843 261.852 69.2843C262.047 69.2843 262.241 69.2843 262.436 69.4788L262.922 69.9651L265.256 73.661C264.187 74.4391 263.117 75.0227 261.852 75.4117C260.588 75.7035 259.226 75.898 257.865 75.898ZM268.855 75.509V37.6746H276.733V51.5829C277.706 50.8048 278.678 50.124 279.846 49.6377C281.11 49.1514 282.472 48.8596 283.833 48.8596C285.098 48.8596 286.459 49.0541 287.626 49.6377C288.696 50.124 289.669 50.8048 290.447 51.6801C291.225 52.6527 291.809 53.7226 292.198 54.7925C292.587 56.0569 292.781 57.4185 292.781 58.7802V75.4117H284.903V58.8774C285 57.8076 284.611 56.7377 284.028 55.8623C283.347 55.0843 282.374 54.6952 281.402 54.7925C280.526 54.7925 279.748 54.987 278.97 55.376C278.192 55.7651 277.414 56.2514 276.83 56.8349V75.509H268.855ZM309.607 48.8596C311.261 48.8596 312.817 49.1514 314.373 49.6377C315.735 50.124 316.999 50.9021 318.069 51.9719C319.139 53.0418 320.014 54.3062 320.5 55.7651C321.084 57.4185 321.376 59.0719 321.376 60.8226C321.376 61.3089 321.376 61.7952 321.279 62.2815C321.279 62.5733 321.181 62.8651 320.987 63.1569C320.889 63.3514 320.695 63.5459 320.403 63.6432C320.111 63.7404 319.82 63.7404 319.528 63.7404H304.452C304.55 65.4911 305.23 67.2418 306.495 68.5062C307.662 69.4788 309.121 70.0624 310.677 69.9651C311.455 69.9651 312.233 69.8679 313.011 69.6733C313.595 69.4788 314.178 69.187 314.762 68.8952C315.248 68.6035 315.735 68.4089 316.221 68.1172C316.61 67.9226 317.096 67.8254 317.583 67.8254C318.166 67.8254 318.652 68.0199 319.042 68.5062L321.279 71.3268C320.5 72.2021 319.625 72.9802 318.652 73.5638C317.777 74.1473 316.805 74.6336 315.735 74.9254C314.762 75.2172 313.789 75.509 312.817 75.6062C311.844 75.7035 310.969 75.8007 309.996 75.8007C308.246 75.8007 306.495 75.509 304.841 74.9254C303.285 74.3418 301.826 73.4665 300.659 72.2994C299.395 71.035 298.422 69.5761 297.839 67.9226C297.061 65.9774 296.769 63.935 296.769 61.7952C296.769 60.1418 297.061 58.3911 297.644 56.8349C298.811 53.7226 301.243 51.1938 304.258 49.9295C305.911 49.2486 307.759 48.8596 309.607 48.8596ZM309.802 54.3062C308.537 54.2089 307.273 54.6952 306.3 55.5706C305.328 56.6404 304.744 57.9048 304.647 59.2665H314.47C314.47 58.6829 314.373 58.0021 314.276 57.4185C314.081 56.8349 313.887 56.3486 313.498 55.8623C313.109 55.376 312.622 54.987 312.039 54.6952C311.261 54.4034 310.58 54.3062 309.802 54.3062ZM362.322 65.6857C362.517 65.6857 362.711 65.6857 362.906 65.7829C363.1 65.8802 363.295 65.9774 363.49 66.172L366.991 69.8679C365.532 71.8131 363.49 73.3692 361.253 74.3418C358.627 75.4117 355.903 75.898 353.083 75.898C350.457 75.898 347.831 75.4117 345.302 74.4391C343.065 73.4665 341.12 72.1049 339.466 70.3542C337.813 68.6035 336.646 66.4637 335.77 64.2267C334.895 61.698 334.506 59.1692 334.506 56.5432C334.506 53.9171 334.992 51.1938 335.965 48.7623C336.937 46.4281 338.299 44.3856 340.05 42.6349C341.8 40.8842 343.94 39.5226 346.274 38.6472C348.803 37.6746 351.526 37.1883 354.347 37.1883C355.709 37.1883 357.07 37.2856 358.335 37.5774C359.502 37.7719 360.766 38.1609 361.836 38.6472C362.906 39.0363 363.879 39.6198 364.851 40.2034C365.727 40.787 366.602 41.4678 367.283 42.2459L364.268 46.2336C364.073 46.5253 363.879 46.7199 363.587 46.9144C363.295 47.1089 362.906 47.2062 362.517 47.2062C362.225 47.2062 361.933 47.1089 361.642 47.0116C361.35 46.8171 361.058 46.7199 360.766 46.5253C360.474 46.3308 360.085 46.1363 359.696 45.8445C359.307 45.5527 358.821 45.3582 358.335 45.1637C357.751 44.9692 357.168 44.7747 356.584 44.6774C355.806 44.4829 355.028 44.4829 354.153 44.4829C352.694 44.4829 351.137 44.7746 349.776 45.3582C348.511 45.9418 347.344 46.7199 346.372 47.7897C345.399 48.8596 344.621 50.2212 344.135 51.5829C343.551 53.2363 343.357 54.8897 343.357 56.6404C343.357 58.3911 343.551 60.1418 344.135 61.7952C344.621 63.1569 345.302 64.5185 346.274 65.5884C347.15 66.561 348.22 67.4363 349.484 67.9226C350.748 68.5062 352.013 68.7007 353.374 68.7007C354.153 68.7007 354.833 68.7007 355.514 68.6035C356.098 68.5062 356.779 68.4089 357.362 68.2144C357.946 68.0199 358.432 67.7281 359.016 67.4363C359.599 67.1446 360.085 66.7555 360.572 66.2692C360.766 66.0747 360.961 65.9774 361.253 65.8802C361.739 65.7829 362.031 65.6857 362.322 65.6857ZM370.979 75.509V37.6746H378.857V51.5829C379.829 50.8048 380.802 50.124 381.969 49.6377C383.233 49.1514 384.595 48.8596 385.957 48.8596C387.221 48.8596 388.583 49.0541 389.75 49.6377C390.82 50.124 391.792 50.8048 392.57 51.6801C393.348 52.6527 393.932 53.7226 394.321 54.7925C394.71 56.0569 394.905 57.4185 394.905 58.7802V75.4117H387.027V58.8774C387.124 57.8076 386.735 56.7377 386.151 55.8623C385.47 55.0843 384.498 54.6952 383.525 54.7925C382.65 54.7925 381.872 54.987 381.094 55.376C380.316 55.7651 379.538 56.2514 378.954 56.8349V75.509H370.979ZM409.786 42.1486C409.786 42.7322 409.688 43.3157 409.396 43.8993C409.105 44.4829 408.813 44.9692 408.327 45.3582C407.84 45.7473 407.354 46.1363 406.77 46.3308C406.187 46.6226 405.506 46.7199 404.922 46.7199C404.339 46.7199 403.658 46.6226 403.172 46.3308C402.588 46.1363 402.102 45.7473 401.713 45.3582C401.324 44.9692 400.935 44.4829 400.74 43.8993C400.449 43.3157 400.351 42.7322 400.351 42.1486C400.351 41.5651 400.449 40.8842 400.74 40.3979C400.935 39.8144 401.324 39.3281 401.713 38.939C402.102 38.55 402.686 38.1609 403.172 37.9664C403.755 37.7719 404.339 37.5774 404.922 37.5774C405.603 37.5774 406.187 37.6746 406.77 37.9664C407.938 38.4527 408.813 39.3281 409.299 40.3979C409.688 40.8842 409.786 41.4678 409.786 42.1486ZM408.91 49.3459V75.6062H401.032V49.3459H408.91ZM423.888 37.6746V75.509H416.01V37.6746H423.888ZM448.884 75.509C448.495 75.509 448.009 75.4117 447.62 75.2172C447.231 75.0227 447.036 74.6336 446.939 74.2446L446.355 72.2021C445.869 72.7857 445.286 73.272 444.702 73.7583C444.118 74.2446 443.535 74.6336 442.854 74.9254C442.173 75.2172 441.492 75.509 440.714 75.7035C439.936 75.898 439.061 75.9953 438.186 75.9953C436.824 75.9953 435.56 75.7035 434.392 75.1199C433.225 74.5364 432.155 73.5638 431.377 72.4939C430.502 71.2295 429.821 69.7706 429.432 68.3117C428.946 66.4637 428.654 64.5185 428.751 62.6706C428.751 60.8226 429.043 58.9747 429.529 57.224C430.016 55.6678 430.794 54.2089 431.864 52.8473C432.836 51.6801 434.003 50.7075 435.462 49.9295C436.921 49.2486 438.477 48.8596 440.034 48.8596C441.201 48.8596 442.368 49.0541 443.438 49.4432C444.313 49.8322 445.188 50.3185 445.966 50.9993V37.6746H453.845V75.509H448.884ZM440.909 69.9651C441.395 69.9651 441.979 69.8679 442.465 69.7706C442.951 69.6733 443.34 69.4788 443.729 69.2843C444.118 69.0898 444.508 68.798 444.799 68.5062C445.188 68.2144 445.48 67.8254 445.869 67.4363V56.3486C445.383 55.7651 444.702 55.2788 443.924 54.987C443.243 54.6952 442.465 54.598 441.784 54.598C441.103 54.598 440.423 54.6952 439.742 54.987C439.061 55.2788 438.575 55.7651 438.186 56.3486C437.699 57.1267 437.31 57.9048 437.116 58.7802C436.824 59.9473 436.727 61.2117 436.727 62.4761C436.727 63.6432 436.824 64.8103 437.018 65.9774C437.213 66.7555 437.408 67.5336 437.894 68.3117C438.186 68.798 438.672 69.2843 439.158 69.5761C439.742 69.7706 440.325 69.9651 440.909 69.9651ZM459.972 75.509V49.2486H464.64C464.932 49.2486 465.321 49.2486 465.613 49.3459C465.808 49.4431 466.099 49.5404 466.294 49.6377C466.488 49.8322 466.586 50.0267 466.683 50.2212C466.78 50.513 466.877 50.8048 466.877 51.0966L467.266 53.5281C468.142 52.1664 469.212 50.9993 470.476 50.0267C471.643 49.1514 473.005 48.7623 474.366 48.7623C475.436 48.6651 476.409 49.0541 477.284 49.6377L476.312 55.376C476.312 55.6678 476.117 55.9596 475.923 56.1541C475.728 56.3486 475.436 56.3486 475.145 56.3486C474.853 56.3486 474.464 56.3486 474.172 56.2514C473.686 56.1541 473.199 56.1541 472.713 56.1541C470.671 56.1541 469.017 57.224 467.85 59.461V75.509H459.972ZM491.582 48.8596C493.235 48.8596 494.791 49.1514 496.347 49.6377C497.709 50.124 498.973 50.9021 500.043 51.9719C501.113 53.0418 501.988 54.3062 502.475 55.7651C503.058 57.4185 503.35 59.0719 503.35 60.8226C503.35 61.3089 503.35 61.7952 503.253 62.2815C503.253 62.5733 503.156 62.8651 502.961 63.1569C502.864 63.3514 502.669 63.5459 502.378 63.6432C502.086 63.7404 501.794 63.7404 501.502 63.7404H486.427C486.524 65.4911 487.205 67.2418 488.469 68.5062C489.636 69.4788 491.095 70.0624 492.651 69.9651C493.43 69.9651 494.208 69.8679 494.986 69.6733C495.569 69.4788 496.153 69.187 496.736 68.8952C497.223 68.6035 497.709 68.4089 498.195 68.1172C498.584 67.9226 499.071 67.8254 499.557 67.8254C500.141 67.8254 500.627 68.0199 501.016 68.5062L503.253 71.3268C502.475 72.2021 501.599 72.9802 500.627 73.5638C499.752 74.1473 498.779 74.6336 497.709 74.9254C496.736 75.2172 495.764 75.509 494.791 75.6062C493.819 75.7035 492.943 75.8007 491.971 75.8007C490.22 75.8007 488.469 75.509 486.816 74.9254C485.26 74.3418 483.801 73.4665 482.634 72.2994C481.369 71.035 480.397 69.5761 479.813 67.9226C479.035 65.9774 478.743 63.935 478.743 61.7952C478.743 60.1418 479.035 58.3911 479.619 56.8349C480.786 53.7226 483.217 51.1938 486.232 49.9295C487.886 49.2486 489.734 48.8596 491.582 48.8596ZM491.776 54.3062C490.512 54.2089 489.247 54.6952 488.275 55.5706C487.302 56.6404 486.719 57.9048 486.621 59.2665H496.347C496.347 58.6829 496.25 58.0021 496.153 57.4185C495.958 56.8349 495.764 56.3486 495.375 55.8623C494.986 55.376 494.499 54.987 493.916 54.6952C493.235 54.4034 492.457 54.3062 491.776 54.3062ZM508.408 75.509V49.2486H513.271C513.66 49.2486 514.146 49.3459 514.535 49.5404C514.924 49.7349 515.119 50.124 515.216 50.513L515.702 52.0692C516.189 51.5829 516.772 51.1938 517.258 50.7075C517.842 50.3185 518.425 49.9295 519.009 49.6377C519.69 49.3459 520.273 49.1514 521.052 48.9569C521.83 48.7623 522.608 48.6651 523.386 48.7623C524.65 48.7623 526.012 48.9569 527.179 49.5404C528.249 50.0267 529.221 50.7075 529.999 51.5829C530.778 52.5555 531.361 53.6254 531.75 54.6952C532.139 55.9596 532.334 57.3213 532.334 58.6829V75.3144H524.456V58.8774C524.553 57.8076 524.164 56.7377 523.58 55.8623C522.899 55.0843 521.927 54.6952 520.954 54.7925C520.079 54.7925 519.301 54.987 518.523 55.376C517.745 55.7651 516.967 56.2514 516.383 56.8349V75.509H508.408ZM97.9685 27.5595C102.637 22.113 104.679 19.5842 104.193 18.1253C103.61 16.8609 102.442 15.8883 101.178 15.5965C99.4274 14.9157 96.9958 14.6239 95.8287 15.3047C94.8561 16.0828 93.9808 17.0554 93.2027 18.028L91.7438 19.6814C90.7712 18.7088 89.7986 17.7362 88.826 16.9582C81.726 10.7335 72.9725 6.7458 63.6355 5.2869C59.8423 1.29922 54.9793 -0.548733 50.1163 0.13209C45.9341 0.812914 42.2382 3.34169 40.0012 6.94032C30.3724 9.85814 21.8135 15.3047 15.0053 22.7938C13.4491 22.3075 10.1422 22.891 8.00251 24.0582C7.0299 24.4472 6.25182 25.3226 5.96004 26.2952C5.86278 26.976 6.15456 27.9486 8.68333 30.9637C1.97236 41.5651 -0.848194 54.1117 0.513452 66.561C1.97236 79.0103 7.90525 90.4871 17.3395 98.7542C20.6464 101.672 24.3423 104.104 28.2327 105.951C46.5177 114.802 67.915 114.024 85.5191 103.909C86.978 103.034 87.4643 101.283 86.7835 99.8241L86.589 99.3378C83.6712 92.9186 74.9177 73.1747 79.7807 55.2788C81.8232 47.7897 87.7561 39.8144 92.8136 33.4924C98.2602 41.8568 100.984 51.7774 100.594 61.7952C100.303 70.9377 97.1904 79.7884 91.6465 87.083C91.3547 87.3747 91.3547 87.7638 91.452 88.1528L92.0356 89.4172C92.3273 89.9035 92.9109 90.1953 93.3972 89.9035C93.5917 89.8063 93.689 89.709 93.7862 89.6117C108.278 71.5213 110.029 46.3308 97.9685 27.5595ZM34.2628 69.9651C32.3176 79.7884 31.9286 89.9035 32.9984 99.9213C29.3026 98.0734 25.8012 95.6419 22.5916 92.9186C14.0327 85.5268 8.29429 75.4117 6.25182 64.2267C4.30661 53.8199 6.0573 43.024 11.2121 33.7842C13.1573 35.8267 15.4916 38.1609 17.9231 40.4952C23.856 46.4281 30.6642 53.139 33.9711 57.9048C35.9163 60.6281 35.3327 64.1295 34.2628 69.9651ZM86.2972 25.5171C75.3068 36.6048 64.8999 42.6349 55.4656 43.3157C48.1711 43.8993 40.4875 41.6623 32.6094 36.8966C27.3573 33.5897 22.3971 29.6993 18.0203 25.3226L17.7286 25.0308C23.1751 19.1951 29.9834 15.0129 37.667 12.6787C36.8889 15.791 36.6944 18.9034 37.1807 22.113C37.9587 27.6568 40.8765 32.6171 45.2533 36.0212C51.4779 40.8842 60.4259 39.7171 65.2889 33.5897C65.4835 33.2979 65.678 33.1034 65.8725 32.8116C69.0821 28.2404 70.2492 22.5993 69.3739 17.0554C69.1793 15.9855 68.9848 14.9157 68.693 13.9431C74.2369 16.0828 79.3917 19.0979 83.7684 23.0856C84.5465 23.7664 85.4219 24.5445 86.2972 25.5171Z" fill="#8A8A8A"/>
</svg>
