<svg width="303" height="303" viewBox="0 0 303 303" fill="none" xmlns="http://www.w3.org/2000/svg">
<path fill-rule="evenodd" clip-rule="evenodd" d="M4.80469 140.071H18.8495V160.367C18.8495 164.7 20.9723 167.432 25.5077 167.432C29.6358 167.432 32.0233 163.911 32.0233 160.064V140.071H45.7235V163.301C45.7235 168.117 43.5365 172.872 39.5306 175.667C35.4636 178.479 30.242 179.166 25.4059 179.166C14.8233 179.166 4.80625 175.443 4.80625 163.301L4.80469 140.071ZM49.6886 178.034V140.071H63.5094V144.503C67.0516 140.82 71.0167 138.736 76.2383 138.736C84.5148 138.736 90.5244 143.511 90.5244 152.051V178.035H76.6832V158.224C76.6832 153.815 75.2858 150.151 70.2271 150.151C65.2076 150.151 63.5078 154.442 63.5078 158.833V178.037L49.6886 178.034ZM94.795 178.034V140.071H108.838V178.034H94.795ZM142.834 165.021V176.597C139.637 178.418 135.894 179.088 132.231 179.088C121.284 179.088 112.319 170.385 112.319 159.377C112.319 147.964 121.224 138.677 132.758 138.677C136.34 138.677 139.76 139.466 142.836 141.266V152.761C140.671 151.486 138.302 150.351 135.733 150.351C130.796 150.351 127.173 153.953 127.173 158.893C127.173 163.586 130.572 167.166 135.347 167.166C138.018 167.166 140.487 166.196 142.834 165.021ZM158.759 162.432C158.759 166.438 160.499 169.655 164.993 169.655C167.765 169.655 169.606 168.48 170.839 166.115H183.911C182.617 170.099 180.897 173.642 177.317 176.069C173.612 178.621 169.16 179.491 164.729 179.491C157.891 179.491 151.212 176.476 147.854 170.323C146.032 166.962 144.899 162.997 144.899 159.154C144.899 153.568 146.943 147.254 151.112 143.43C154.975 139.888 160.503 138.371 165.682 138.371C178.328 138.371 184.803 146.385 184.803 158.423C184.803 159.761 184.643 161.094 184.459 162.432H158.759ZM187.333 178.034V141.346C187.333 135.721 187.635 129.387 191.868 125.158C195.368 121.659 200.812 120.706 205.567 120.706H209.168V130.682H207.002C201.843 130.682 201.316 133.859 201.316 138.353V140.577H208.681V150.98H201.316V178.035L187.333 178.034ZM248.403 184.408L247.17 183.215C249.315 180.623 252.412 178.784 255.447 177.385C253.745 176.679 251.986 176.091 250.126 176.05L249.639 176.616C247.736 178.902 245.328 179.589 242.393 179.589C240.31 179.589 237.902 179.387 235.919 178.72L233.796 178.032L233.006 177.506V177.405C233.006 176.779 235.818 176.331 236.262 176.252L239.542 175.604C242.218 175.048 244.942 174.763 247.674 174.753C251.016 174.753 254.314 175.424 257.45 176.534C260.728 175.463 264.148 174.753 267.605 174.753C271.329 174.753 274.992 175.24 278.575 176.169C278.96 176.27 281.611 176.738 281.611 177.445C281.611 178.7 273.496 179.63 272.404 179.63C269.812 179.63 266.311 178.761 265.241 176.111C265.058 176.111 264.856 176.09 264.654 176.09C262.952 176.09 261.032 176.716 259.473 177.365C262.307 178.678 265.078 180.418 267.264 182.665L267.688 183.111L266.494 184.264L265.846 183.716L264.652 182.644C263.682 181.754 258.765 178.294 257.569 178.211C256.498 178.131 252.45 180.863 251.521 181.571C250.407 182.444 249.398 183.417 248.403 184.408ZM234.805 162.938L236.041 164.174C237.498 165.631 243.446 172.145 243.446 174.148C243.446 174.595 242.657 174.573 242.354 174.573C239.603 174.573 237.134 172.547 235.818 170.262C234.569 168.111 233.912 165.668 233.915 163.18C233.915 162.978 233.915 162.532 234.2 162.532C234.441 162.533 234.665 162.797 234.805 162.938ZM223.331 168.745C223.373 168.504 223.655 168.421 223.857 168.421C225.822 168.421 239.016 173.281 239.016 174.716C239.016 175.768 235.472 175.605 234.968 175.605C232.072 175.605 229.401 174.311 227.138 172.569C226.672 172.206 223.251 169.455 223.331 168.745ZM229.141 161.725C229.141 161.077 229.545 155.532 230.335 155.532C231.125 155.532 232.599 161.783 232.782 162.512C233.388 165.042 233.794 167.511 233.794 170.121C233.794 170.345 233.752 170.769 233.448 170.769C232.436 170.769 230.597 167.55 230.211 166.801C229.401 165.244 229.141 163.464 229.141 161.725ZM218.759 158.042C218.759 157.901 218.798 157.718 218.961 157.718C220.884 157.718 230.901 167.371 230.901 169.394C230.901 169.635 230.76 169.718 230.537 169.718C227.622 169.718 223.979 166.582 222.2 164.537C221.208 163.384 218.759 159.66 218.759 158.042ZM228.511 160.287L227.927 162.573C227.866 162.797 227.725 163.401 227.42 163.401C226.266 163.401 225.699 158.221 225.699 157.23C225.699 155.449 226.187 153.629 226.835 151.989C227.015 151.545 228.107 148.55 228.797 148.55C229.464 148.55 229.384 149.966 229.384 150.35C229.384 153.629 229.321 157.111 228.511 160.287ZM220.014 149.441L221.773 152.252C222.848 153.992 225.436 158.83 225.436 160.932C225.436 161.095 225.375 161.34 225.173 161.34C224.708 161.34 224.283 161.037 223.94 160.73L222.402 159.356C219.651 156.887 217.971 151.869 217.971 148.205C217.971 147.983 218.051 147.557 218.335 147.557C219.041 147.558 219.712 148.954 220.014 149.441ZM228.817 142.459C228.958 142.459 228.98 142.581 228.98 142.702C228.98 144.502 225.699 155.288 224.264 155.288C223.577 155.288 223.638 153.348 223.638 152.941C223.638 149.825 224.791 147.154 226.63 144.705C226.914 144.342 228.229 142.459 228.817 142.459ZM219.265 142.236C219.265 141.649 219.507 137.561 220.138 137.561C220.764 137.561 221.673 141.346 221.797 141.832C222.587 144.746 223.132 147.903 223.132 150.937C223.132 151.26 223.215 152.413 222.648 152.413C221.977 152.413 220.722 149.642 220.5 149.034C219.668 146.911 219.265 144.524 219.265 142.236ZM225.212 145.778L224.404 146.649C224.241 146.811 223.979 147.115 223.716 147.115C223.453 147.115 223.453 146.79 223.453 146.609C223.453 144.038 224.606 141.732 226.204 139.789C226.852 139 229.401 136.167 230.454 136.167C230.598 136.167 230.678 136.249 230.678 136.369C230.678 138.472 226.73 144.118 225.212 145.778ZM223.757 130.054C224.586 130.095 224.607 135.598 224.607 136.125C224.607 136.833 224.142 143.855 223.169 143.855C222.059 143.855 221.756 138.208 221.756 137.46C221.756 135.801 222.019 134.201 222.524 132.623C222.646 132.26 223.169 130.015 223.757 130.054ZM231.143 130.197L231.811 129.752C231.872 129.731 231.933 129.67 231.994 129.67C232.135 129.691 232.196 129.872 232.196 129.995C232.196 131.411 229.708 135.074 228.898 136.166C228.433 136.773 226.227 139.524 225.358 139.524C225.156 139.524 225.012 139.343 225.012 139.159C225.012 135.984 228.634 131.856 231.143 130.197ZM231.266 125.805L230.656 127.505C229.848 129.813 228.37 132.28 226.672 134.041L226.124 134.608C225.983 134.771 225.8 134.972 225.579 134.972C225.233 134.972 225.171 134.527 225.171 134.264C225.171 131.917 226.527 129.589 228.005 127.848C228.471 127.281 230.413 124.934 231.203 124.934C231.344 124.934 231.366 125.157 231.366 125.259C231.366 125.442 231.327 125.624 231.266 125.805ZM272.365 174.634C272.059 174.634 271.755 174.512 271.755 174.169C271.755 172.59 280.133 162.452 281.268 162.452C281.509 162.452 281.531 162.795 281.531 162.956C281.532 168.1 278.15 174.634 272.365 174.634ZM277.038 173.824L278.861 172.873C281.125 171.701 289.038 168.465 291.609 168.465C291.75 168.465 292.013 168.526 292.013 168.706C292.013 169.596 287.622 172.895 286.934 173.342C284.728 174.799 282.201 175.688 279.548 175.688C279.024 175.688 276.09 175.707 276.09 174.738C276.088 174.289 276.695 173.986 277.038 173.824ZM282.927 169.779L282.115 170.547C281.996 170.669 281.833 170.832 281.65 170.849C281.326 170.871 281.387 170.182 281.387 170.02V169.718C281.387 166.196 282.479 162.617 283.572 159.297C283.676 158.951 284.686 155.595 285.274 155.595C285.659 155.595 285.761 156.605 285.8 156.867L286.143 158.911C286.265 159.682 286.306 160.469 286.306 161.258C286.306 164.437 285.234 167.529 282.927 169.779ZM295.919 158.164L296.484 157.901C296.545 157.879 296.625 157.818 296.726 157.818C296.848 157.818 296.95 157.959 296.95 158.081C296.943 158.186 296.914 158.289 296.867 158.383L296.221 159.84C294.905 162.775 292.375 165.953 289.602 167.674C288.632 168.261 285.878 169.796 284.725 169.796C284.504 169.796 284.362 169.674 284.362 169.453C284.362 168.26 288.247 164.454 289.12 163.585C290.818 161.866 293.713 159.234 295.919 158.164ZM286.489 150.694L286.569 149.339C286.591 149.178 286.652 148.529 286.933 148.551C287.157 148.572 287.318 148.894 287.42 149.057L288.271 150.594C289.362 152.598 289.908 155.006 289.908 157.292C289.908 158.001 289.099 163.564 288.13 163.564C286.933 163.564 286.389 154.44 286.389 153.751C286.387 152.739 286.428 151.708 286.489 150.694ZM292.012 153.831L291.849 154.743C291.81 154.923 291.769 155.247 291.528 155.247C290.414 155.247 287.721 146.768 287.418 145.515C287.396 145.454 286.528 142.52 287.216 142.52C288.269 142.52 290.514 146.566 290.918 147.499C291.628 149.057 292.132 150.716 292.132 152.458C292.134 152.922 292.095 153.388 292.012 153.831ZM296.666 139.302L296.788 141.102C296.827 141.426 296.827 141.73 296.827 142.033C296.827 144.016 296.423 146.281 295.797 148.164C295.573 148.771 293.935 152.455 293.046 152.455C292.699 152.455 292.66 151.829 292.66 151.605C292.66 148.224 293.469 145.067 294.441 141.871C294.564 141.486 295.574 137.804 296.101 137.804C296.547 137.806 296.647 139.039 296.666 139.302ZM291.446 160.793L290.495 161.341C290.393 161.41 290.275 161.452 290.152 161.46C290.011 161.46 289.989 161.239 289.989 161.139C289.989 159.258 296.362 147.519 297.758 147.519C297.902 147.519 297.902 147.762 297.902 147.864C297.902 150.13 297.254 152.498 296.425 154.603C295.555 156.826 293.53 159.599 291.446 160.793ZM292.419 145.96V146.648C292.419 146.83 292.419 147.093 292.195 147.093C291.871 147.093 291.607 146.668 291.427 146.465L290.069 144.846C288.936 143.491 285.437 138.392 285.437 136.551C285.437 136.429 285.498 136.267 285.639 136.267C285.924 136.267 286.204 136.469 286.406 136.631L287.765 137.684C290.069 139.465 292.477 142.924 292.419 145.96ZM284.484 131.39L284.243 130.581C284.204 130.44 284.142 130.277 284.142 130.136C284.142 130.034 284.222 129.973 284.323 129.973C285.661 129.973 288.493 133.27 289.261 134.364C290.111 135.598 291.103 137.278 291.103 138.815C291.103 138.996 291.142 139.645 290.84 139.645C289.099 139.647 284.949 132.988 284.484 131.39ZM285.761 125.32L287.177 126.615C289.059 128.336 291.161 131.229 291.161 133.921C291.161 134.184 291.244 135.114 290.859 135.114C289.323 135.114 286.387 129.207 285.902 128.011C285.88 127.971 284.708 124.995 285.296 125.057C285.476 125.057 285.639 125.198 285.761 125.32ZM293.469 142.965L293.126 143.714C293.064 143.836 293.003 143.977 292.84 143.977C292.051 143.977 291.607 138.006 291.607 137.279C291.607 136.631 292.095 130.136 292.638 130.136C292.901 130.136 293.104 131.005 293.165 131.187L293.752 132.825C294.318 134.384 294.462 136.325 294.462 137.986C294.463 139.667 294.139 141.428 293.469 142.965Z" fill="#8A8A8A"/>
<path fill-rule="evenodd" clip-rule="evenodd" d="M230.826 145.839C230.826 137.906 234.042 129.995 240.033 124.713C244.929 120.363 251.465 117.67 258.043 117.67C273.016 117.67 284.936 130.095 284.936 144.948C284.936 160.002 272.593 172.691 257.475 172.691C242.762 172.691 230.826 160.45 230.826 145.839ZM101.761 120.241C106.173 120.241 109.815 123.944 109.815 128.336C109.815 132.727 106.193 136.469 101.761 136.469C97.351 136.469 93.707 132.747 93.707 128.336C93.707 123.944 97.3494 120.241 101.761 120.241Z" fill="#8A8A8A"/>
<path fill-rule="evenodd" clip-rule="evenodd" d="M158.941 154.297H171.67C171.468 150.596 169.809 147.5 165.679 147.5C161.288 147.5 159.509 150.312 158.941 154.297ZM265.442 121.173C265.867 120.769 266.293 120.363 266.74 119.959L265.911 119.736C264.292 119.291 262.713 118.947 261.034 118.785L261.518 119.048L262.513 119.493C263.542 119.938 264.493 120.585 265.442 121.173ZM258.867 129.531C260.771 129.388 262.591 129.166 264.412 128.58C263.805 127.163 263.139 125.807 262.248 124.533C261.153 124.796 260.081 124.978 258.95 125.019L258.867 129.531ZM258.845 135.965C260.893 135.943 262.875 135.5 264.919 135.418C265.442 135.377 266.495 135.296 266.495 134.569C266.495 134.428 266.456 134.306 266.437 134.185L266.152 133.032C265.889 131.879 265.424 130.806 264.958 129.734C262.955 130.341 260.91 130.583 258.827 130.746L258.845 135.965ZM265.525 128.296C266.983 127.82 268.371 127.153 269.653 126.313C268.421 124.936 267.105 123.621 265.525 122.65C264.852 123.196 264.111 123.652 263.32 124.007L263.744 124.756L264.573 126.172C264.958 126.839 265.24 127.568 265.525 128.296ZM270.727 125.766C271.697 125.142 272.599 124.416 273.417 123.601C271.837 122.164 269.794 121.193 267.792 120.444C267.368 120.95 266.881 121.375 266.415 121.82C268.034 122.872 269.472 124.329 270.727 125.766ZM271.516 126.717C272.89 128.317 274.126 130.077 275.096 131.959C276.473 131.169 277.828 130.298 279.022 129.247C277.767 127.445 276.229 125.664 274.429 124.391C273.863 124.937 273.254 125.423 272.608 125.909L271.516 126.717Z" fill="#040404"/>
<path fill-rule="evenodd" clip-rule="evenodd" d="M248.749 120.321C238.734 124.226 231.629 134.649 231.629 145.373C231.629 159.822 243.186 171.761 257.713 171.761C272.952 171.761 284.263 159.112 284.263 144.24C284.263 139.202 282.482 134.425 279.829 130.215L278.758 130.985C277.746 131.693 276.713 132.36 275.621 132.948C275.845 133.413 276.087 133.939 276.087 134.466C276.087 134.668 276.026 135.113 275.74 135.113C275.195 135.113 274.691 133.939 274.508 133.535C273.757 133.778 272.95 134.184 272.139 134.184C271.959 134.184 271.594 134.041 271.594 133.798C271.594 133.15 273.494 132.584 273.98 132.362C273.049 130.501 271.996 128.842 270.561 127.324C269.123 128.133 267.666 128.842 266.109 129.407C266.43 130.197 266.754 130.966 267.017 131.776L267.522 133.313C267.622 133.657 267.746 134.021 267.746 134.386C267.746 135.863 266.474 136.41 265.236 136.551L262.302 136.914C261.169 137.055 260.016 137.116 258.863 137.137L258.882 138.937C258.882 139.321 258.882 139.969 258.316 139.969C257.79 139.969 257.649 139.524 257.629 139.059L257.59 137.339C257.044 137.339 255.404 137.4 255.404 136.551C255.404 136.126 255.869 136.004 256.216 136.004C256.537 136.004 256.861 136.025 257.207 136.025H257.712L257.673 130.905L255.971 130.823C255.738 130.3 255.446 129.804 255.102 129.346L257.773 129.529V124.995C256.659 124.934 255.628 124.713 254.553 124.408C254.21 124.873 253.179 126.979 252.653 126.979C252.39 126.979 252.229 126.695 252.229 126.452C252.229 125.583 252.935 124.571 253.4 123.882C252.568 123.527 251.787 123.064 251.075 122.506C250.366 122.951 247.756 125.157 247.431 125.157C247.168 125.157 247.049 124.812 247.049 124.59C247.049 123.72 249.435 122.304 250.103 121.859C249.622 121.373 249.175 120.847 248.749 120.321ZM255.185 118.925H255.022C253.324 118.925 251.785 119.349 250.187 119.937C250.511 120.361 250.855 120.726 251.259 121.049C252.514 120.2 253.811 119.553 255.185 118.925Z" fill="#040404"/>
<path fill-rule="evenodd" clip-rule="evenodd" d="M256.622 119.572C254.942 120.058 253.504 120.807 252.008 121.737C252.675 122.162 253.363 122.527 254.069 122.85L254.881 121.737L255.912 120.482L256.622 119.572ZM255.223 123.296C256.034 123.558 256.841 123.761 257.692 123.923L257.775 120.32C257.569 120.221 255.425 123.013 255.223 123.296ZM259.008 120.403L258.986 123.882C259.825 123.779 260.657 123.624 261.477 123.417C260.748 122.304 259.999 121.294 259.008 120.403ZM262.771 122.912C263.328 122.605 263.869 122.268 264.389 121.9C263.134 121.01 261.942 120.363 260.485 119.856C261.111 120.645 261.718 121.435 262.283 122.243L262.771 122.912Z" fill="#040404"/>
<path fill-rule="evenodd" clip-rule="evenodd" d="M234.789 141.529C234.446 141.731 234.101 141.933 233.758 142.156C234.043 138.534 235.802 132.563 238.776 130.318C238.574 130.945 238.433 131.553 238.372 132.2C236.49 134.993 235.376 138.231 234.789 141.529ZM274.412 163.061L274.13 162.271C276.072 160.451 277.691 158.223 278.74 155.757L280.218 154.521C278.985 157.758 277.305 161.016 274.412 163.061Z" fill="#8A8A8A"/>
<path fill-rule="evenodd" clip-rule="evenodd" d="M273.538 164.089C269.003 167.691 263.743 170.06 257.897 170.06C243.611 170.06 233.309 158.769 233.309 144.765C233.309 141.082 239.664 141.061 239.664 137.642C239.664 135.901 238.977 134.242 238.977 132.522C238.977 128.616 242.538 125.521 246.302 125.521C250.187 125.521 255.61 128.92 255.61 133.211C255.61 135.78 253.609 136.974 253.609 138.492C253.609 138.978 253.689 139.464 253.689 139.949C253.689 140.476 252.921 140.576 252.86 141.143L252.821 141.447L252.475 141.973L252.172 142.52C252.031 142.742 251.203 143.371 250.939 143.654C250.474 144.16 249.804 144.262 249.138 144.262C248.713 144.262 248.268 144.242 247.863 144.14L246.752 143.838C246.566 143.796 246.376 143.776 246.186 143.776C245.577 143.776 244.87 144.201 244.87 144.87C244.87 145.962 245.477 147.035 245.436 148.147L245.375 151.083L245.414 151.285L245.738 152.255L245.98 153.087C246.346 154.442 248.47 154.342 249.865 154.885L251.058 155.332C251.221 155.39 251.422 155.512 251.607 155.512C252.335 155.512 253.186 154.135 254.4 154.135C254.865 154.135 254.884 154.845 255.29 154.805L256.443 154.705C256.684 154.663 256.866 155.636 256.866 155.838C256.866 157.536 255.694 159.723 253.791 159.723C253.001 159.723 252.395 159.097 251.668 159.097C251.366 159.097 249.116 159.723 248.492 159.825C247.603 159.966 246.711 160.107 245.821 160.107C245.134 160.107 244.12 160.129 243.532 159.764L243.067 159.462C242.987 159.422 242.904 159.361 242.804 159.361C242.075 159.361 241.712 161.204 241.712 161.686C241.712 163.914 244.546 164.743 246.287 164.743C247.397 164.743 248.55 164.58 249.584 164.133L252.721 162.759C254.984 161.768 258.831 161.343 259.479 160.997C260.045 160.694 260.49 160.168 260.49 159.501C260.488 159.222 260.454 158.943 260.389 158.672L260.107 157.558L259.883 156.203L259.7 154.726C259.296 151.165 255.068 150.983 255.068 148.331C255.068 147.239 256.221 146.61 256.261 145.578C256.283 145.153 256.341 144.87 256.748 144.668L257.153 144.486C257.718 144.223 257.153 142.968 257.881 142.705L258.267 142.564C259.136 142.26 258.346 140.46 259.583 140.297L260.574 140.156L261.768 139.913C263.225 139.609 263.145 138.152 264.865 137.403L266.664 136.614L267.334 136.189L268.121 135.361C268.83 134.652 270.024 134.51 270.975 134.51C277.633 134.51 282.51 139.691 282.51 146.206C282.51 151.285 278.401 157.741 272.816 157.741C272.452 157.741 272.087 157.699 271.724 157.699C270.812 157.699 270.751 158.711 270.751 159.422C270.751 161.769 273.585 163.387 273.585 163.428C273.585 163.63 273.546 163.832 273.546 164.035V164.089H273.538Z" fill="#8A8A8A"/>
</svg>
