<svg width="377" height="114" viewBox="0 0 377 114" fill="none" xmlns="http://www.w3.org/2000/svg">
<g clip-path="url(#clip0_1628_55066)">
<path d="M161.805 27.1614H161.742L156.695 53.5307H149.756L143.195 21.3576H148.746L153.289 46.1498H153.352L158.209 21.3576H165.401L170.195 46.1498H170.258L174.99 21.3576H180.352L173.728 53.5307H166.662L161.805 27.1614ZM188.679 29.3694C193.536 29.3694 199.088 31.8927 199.088 41.5447C199.088 51.512 193.536 53.783 188.679 53.783C183.821 53.783 178.207 51.4489 178.207 41.5447C178.27 31.8927 183.884 29.3694 188.679 29.3694ZM188.679 49.8087C192.338 49.8087 193.221 45.5821 193.221 41.6077C193.221 37.6334 192.401 33.4698 188.679 33.4698C184.957 33.4698 184.137 37.6334 184.137 41.6077C184.137 45.5821 185.02 49.8087 188.679 49.8087ZM201.927 33.6591C201.927 32.3343 201.864 31.0726 201.737 29.7479H206.91C206.973 31.1988 207.1 32.6497 207.1 34.1007H207.163C207.857 32.2712 209.623 29.4324 213.219 29.4324C213.534 29.4324 213.85 29.4955 214.165 29.5586V34.9208C213.66 34.7946 213.093 34.6685 212.588 34.6685C210.254 34.6685 207.667 36.1194 207.667 40.5353V53.5307H201.99L201.927 33.6591ZM216.625 18.9604H222.366V53.4676H216.625V18.9604ZM245.644 18.9604V49.4302C245.644 50.755 245.707 52.1428 245.833 53.4676H240.471C240.345 52.269 240.282 51.0073 240.282 49.8087H240.156C239.21 51.8274 237.506 53.8461 233.847 53.8461C227.981 53.8461 225.52 48.2316 225.52 41.6708C225.52 33.9114 228.611 29.4324 233.721 29.4324C236.371 29.3063 238.768 30.8203 239.84 33.2175H239.903V18.9604H245.644ZM235.361 49.6195C238.705 49.6195 239.84 45.9606 239.84 41.5447C239.84 36.9395 238.579 33.596 235.425 33.596C232.27 33.596 231.135 36.6872 231.135 41.4185C231.198 46.9068 232.081 49.6195 235.361 49.6195ZM262.614 21.3576H268.544V34.4161H278.07V21.3576H283.936V53.5307H278.07V39.2736H268.544V53.4676H262.614V21.3576ZM304.817 52.3321C302.609 53.3415 300.149 53.8461 297.752 53.8461C290.119 53.8461 286.775 48.3578 286.775 41.9862C286.775 34.9208 290.497 29.4324 296.553 29.4324C301.663 29.4324 306.016 32.3974 306.016 42.1124V43.2479H292.327C292.327 47.2853 293.967 49.7456 298.383 49.7456C301.852 49.7456 303.556 48.6732 304.628 47.9162L304.817 52.3321ZM300.465 39.589C300.465 35.4255 299.077 33.2806 296.49 33.2806C293.462 33.2806 292.264 36.4348 292.264 39.589H300.465ZM309.675 31.1357C312.009 30.0002 314.596 29.3694 317.182 29.3694C324.563 29.3694 326.266 32.9652 326.266 38.8951V49.241C326.266 50.6288 326.392 52.0167 326.582 53.4045H321.409C321.156 52.3321 321.03 51.2597 321.093 50.1872H321.03C319.579 52.1428 317.813 53.783 314.406 53.783C310.747 53.783 307.341 51.2597 307.341 46.8438C307.341 40.4091 312.577 38.7689 319.832 38.7689H320.967V37.8858C320.967 35.5516 319.832 33.3437 316.551 33.3437C314.217 33.4068 311.946 34.2269 310.053 35.6778L309.675 31.1357ZM320.904 41.8601H320.399C315.542 41.8601 312.64 42.8694 312.64 46.3391C312.514 48.2316 313.965 49.8718 315.857 49.998H316.299C319.705 49.998 320.967 47.4746 320.967 43.2479V41.8601H320.904ZM331.502 18.9604H337.18V53.4676H331.502V18.9604ZM343.741 24.8904L349.418 23.124V29.7479H354.15V33.9114H349.418V46.276C349.418 48.7994 350.364 49.5564 352.005 49.5564C352.762 49.5564 353.519 49.3671 354.15 49.0517V53.0891C352.951 53.5938 351.626 53.8461 350.301 53.8461C346.075 53.8461 343.677 51.8905 343.677 46.9068V33.9745H339.892V29.8109H343.677V24.8904H343.741ZM355.979 18.9604H361.657V32.839H361.783C362.792 31.3881 364.117 29.4324 367.65 29.4324C373.012 29.4324 374.652 33.4068 374.652 38.2012V53.4676H368.974V39.2736C368.974 35.6147 368.028 34.1007 365.694 34.1007C362.729 34.1007 361.657 36.6241 361.657 39.6521V53.4676H355.979V18.9604ZM156.253 62.0471C162.94 62.0471 169.06 67.0308 169.06 78.5752C169.06 90.1197 162.94 95.1034 156.253 95.1034C149.567 95.1034 143.447 90.1197 143.447 78.5752C143.447 67.0308 149.567 62.0471 156.253 62.0471ZM156.253 90.6244C159.975 90.6244 163.004 87.4701 163.004 78.5752C163.004 69.6803 159.975 66.5892 156.253 66.5892C152.532 66.5892 149.503 69.7434 149.503 78.5752C149.503 87.4071 152.532 90.6244 156.253 90.6244ZM171.457 74.8533C171.457 73.5285 171.394 72.2668 171.268 70.942H176.441C176.504 72.393 176.63 73.8439 176.63 75.2948H176.693C177.387 73.4654 179.216 70.6266 182.749 70.6266C183.064 70.6266 183.38 70.6897 183.695 70.7528V76.1149C183.191 75.9888 182.623 75.8626 182.055 75.8626C179.721 75.8626 177.134 77.3136 177.134 81.7295V94.7249H171.457V74.8533ZM186.471 98.3838C188.616 99.6455 191.013 100.339 193.473 100.402C198.836 100.402 199.719 96.6805 199.719 92.9585V90.6875H199.656C198.709 92.5169 197.132 94.7249 193.41 94.7249C190.13 94.7249 185.146 92.5169 185.146 82.9281C185.146 76.3673 187.48 70.6266 193.726 70.6266C197.195 70.6266 198.772 72.5822 199.971 74.664H200.16C200.16 73.4023 200.286 72.2037 200.35 71.0051H205.522C205.459 72.2668 205.333 73.4654 205.333 74.7271V92.2015C205.333 99.6455 203.062 104.881 194.357 104.881C191.581 104.881 188.805 104.377 186.219 103.431L186.471 98.3838ZM194.735 90.4982C198.331 90.4982 199.782 87.9117 199.782 82.5496C199.782 77.5659 197.889 74.9163 195.177 74.9794C192.149 75.0425 191.013 77.8182 191.013 82.6126C191.013 88.1641 192.779 90.4982 194.735 90.4982ZM210.38 72.3299C212.714 71.1313 215.301 70.5635 217.887 70.5635C225.268 70.5635 226.971 74.1593 226.971 80.0893V90.4351C226.971 91.823 227.097 93.2108 227.287 94.5987H222.114C221.861 93.5263 221.735 92.4538 221.798 91.3814H221.735C220.284 93.337 218.518 94.9772 215.111 94.9772C211.452 94.9772 208.046 92.4538 208.046 88.0379C208.046 81.6033 213.282 79.9631 220.537 79.9631H221.672V79.0799C221.672 76.7458 220.537 74.5378 217.256 74.5378C214.922 74.6009 212.651 75.421 210.758 76.872L210.38 72.3299ZM221.609 83.0542H221.104C216.247 83.0542 213.345 84.0636 213.345 87.5332C213.219 89.4258 214.67 91.066 216.562 91.1921H217.004C220.41 91.1921 221.672 88.6688 221.672 84.4421L221.609 83.0542ZM231.576 74.8533C231.576 73.5285 231.513 72.2668 231.387 70.942H236.749C236.812 72.1406 236.939 73.4023 236.939 74.6009H237.002C237.822 73.15 239.462 70.6266 243.31 70.6266C248.672 70.6266 250.312 74.6009 250.312 79.3953V94.6618H244.572V80.4047C244.572 76.7458 243.625 75.2318 241.291 75.2318C238.326 75.2318 237.254 77.7551 237.254 80.7832V94.5987H231.576V74.8533ZM254.665 60.8485H260.595V66.463H254.665V60.8485ZM254.791 70.942H260.469V94.6618H254.791V70.942ZM264.948 89.7412L275.105 75.2948H265.263V70.942H280.782V75.7995L270.815 90.309H281.098V94.6618H264.885V89.7412H264.948ZM285.451 72.3299C287.785 71.1313 290.371 70.5635 292.958 70.5635C300.338 70.5635 302.042 74.1593 302.042 80.0893V90.4351C302.042 91.823 302.168 93.2108 302.357 94.5987H297.184C296.932 93.5263 296.806 92.4538 296.869 91.3814H296.806C295.355 93.337 293.588 94.9772 290.182 94.9772C286.523 94.9772 283.116 92.4538 283.116 88.0379C283.116 81.6033 288.352 79.9631 295.607 79.9631H296.743V79.0799C296.743 76.7458 295.607 74.5378 292.327 74.5378C289.993 74.6009 287.722 75.421 285.829 76.872L285.451 72.3299ZM296.68 83.0542H296.175C291.317 83.0542 288.415 84.0636 288.415 87.5332C288.289 89.4258 289.74 91.066 291.633 91.1921H292.074C295.481 91.1921 296.743 88.6688 296.743 84.4421V83.0542H296.68ZM308.224 66.0845L313.902 64.3181V70.942H318.633V75.1056H313.902V87.4071C313.902 89.9304 314.848 90.6875 316.488 90.6875C317.245 90.6875 318.002 90.5613 318.633 90.1828V94.2202C317.434 94.7879 316.11 95.0403 314.785 94.9772C310.558 94.9772 308.161 93.0216 308.161 88.101V75.1056H304.376V70.942H308.161L308.224 66.0845ZM322.103 60.8485H327.969V66.463H322.103V60.8485ZM322.229 70.942H327.969V94.6618H322.292L322.229 70.942ZM341.533 70.5635C346.39 70.5635 351.942 73.0869 351.942 82.7388C351.942 92.7062 346.39 94.9772 341.533 94.9772C336.675 94.9772 331.061 92.7062 331.061 82.7388C331.124 73.15 336.738 70.5635 341.533 70.5635ZM341.533 91.0029C345.191 91.0029 346.075 86.7762 346.075 82.8019C346.075 78.8276 345.255 74.664 341.533 74.664C337.811 74.664 336.991 78.8276 336.991 82.8019C336.991 86.7762 337.874 91.0029 341.533 91.0029ZM356.484 74.8533C356.484 73.5285 356.421 72.2668 356.294 70.942H361.657C361.72 72.1406 361.846 73.4023 361.846 74.6009H361.909C362.729 73.15 364.369 70.6266 368.217 70.6266C373.579 70.6266 375.22 74.6009 375.22 79.3953V94.6618H369.542V80.4047C369.542 76.7458 368.596 75.2318 366.262 75.2318C363.297 75.2318 362.224 77.7551 362.224 80.7832V94.5987H356.547L356.484 74.8533ZM108.751 21.0422C111.211 24.0072 115.501 25.7105 118.024 28.6754C116.195 19.9698 109.508 12.8412 101.559 11.1379C105.47 14.0398 106.291 18.0772 108.751 21.0422ZM13.3672 43.1218C18.8555 31.1988 26.9934 33.7222 30.4631 22.4301C28.4444 25.8366 19.5494 27.2876 15.449 36.1825C17.5938 30.8834 16.5214 22.8086 20.0541 18.3927C9.39285 26.3413 13.9349 39.0844 13.3672 43.1218ZM23.2083 71.6359C24.2177 76.2411 21.3158 82.9912 25.921 89.3627C21.1896 84.0636 11.0961 82.6757 6.99564 74.6009C12.1055 94.3464 25.4794 90.309 31.4724 94.5987C26.5518 87.4702 30.5892 82.7388 23.2083 71.6359ZM21.6943 84.0636C18.7293 73.0238 23.9654 69.1757 19.991 58.5775C19.6125 64.5705 15.5751 67.4724 18.2878 78.386C13.5564 69.1126 6.23862 65.6429 4.09375 59.3345C4.21992 76.6827 18.1616 79.2692 21.6943 84.0636ZM43.08 102.547C38.9795 96.8697 41.7552 93.6524 30.2738 83.3697C32.7341 87.1547 30.2107 91.8861 37.9701 99.2039C30.4 94.7249 19.8649 96.6174 14.8181 90.6244C23.5238 107.279 38.7902 100.466 43.08 102.547ZM98.9097 99.2039C106.669 91.823 104.146 87.0916 106.606 83.3697C95.0616 93.6524 97.9004 96.8697 93.7368 102.547C98.0896 100.466 113.356 107.279 121.999 90.6244C117.015 96.6805 106.48 94.7249 98.9097 99.2039ZM110.959 89.3627C115.564 82.9912 112.662 76.3042 113.608 71.6359C106.228 82.7388 110.265 87.4702 105.344 94.5987C111.4 90.309 124.711 94.3464 129.821 74.6009C125.721 82.6757 115.69 84.0636 110.959 89.3627ZM92.5382 103.367C88.4377 102.295 84.211 101.601 79.9213 101.475C76.01 101.412 72.0988 102.043 68.4399 103.431C64.781 102.043 60.8698 101.412 56.9585 101.475C52.6688 101.601 48.4421 102.295 44.3416 103.367C37.4024 105.197 31.4093 106.648 26.1733 103.998C31.157 108.414 37.0238 110.054 45.4772 109.108C52.4795 108.351 58.1571 104.818 64.781 104.881H65.0333C60.8698 106.963 57.1478 109.865 54.1197 113.398L57.337 113.839C57.337 113.839 60.6805 107.089 68.4399 105.323C76.1993 107.089 79.5428 113.839 79.5428 113.839L82.7601 113.398C79.732 109.865 76.01 106.963 71.8465 104.881H72.0988C78.7227 104.818 84.4003 108.351 91.4027 109.108C99.856 109.991 105.66 108.414 110.707 103.998C105.47 106.648 99.4775 105.197 92.5382 103.367ZM20.4957 46.5914C17.6569 52.0798 13.1779 53.3415 13.6826 64.6336C11.2854 54.6031 5.54469 50.8181 5.60778 44.4465C1.63346 61.227 12.2316 63.1826 15.0074 70.2481C14.5658 60.1546 21.0004 58.1359 20.4957 46.5914ZM24.47 33.6591C23.4607 35.047 22.7668 35.6778 20.1172 37.8227C16.1429 40.9769 13.3672 45.4559 12.4209 50.4396C12.6732 44.2573 8.88817 35.4255 11.4115 28.9909C1.63346 42.8063 11.9793 51.0704 12.3578 56.1172C14.8181 46.4652 20.685 46.4022 24.47 33.6591ZM124.459 50.4396C123.45 45.4559 120.737 40.9769 116.763 37.8227C114.113 35.6147 113.419 35.047 112.41 33.6591C116.195 46.4022 122.062 46.4652 124.585 56.1172C124.964 51.1335 135.309 42.8694 125.531 28.9909C128.055 35.4255 124.27 44.2573 124.459 50.4396ZM132.786 59.3345C130.641 65.706 123.323 69.1126 118.592 78.386C121.305 67.4724 117.267 64.5705 116.889 58.5775C112.914 69.1757 118.15 73.0238 115.186 84.0636C118.718 79.2692 132.66 76.6827 132.786 59.3345ZM116.384 46.5914C115.816 58.1359 122.314 60.1546 121.872 70.2481C124.585 63.2457 135.246 61.227 131.272 44.4465C131.335 50.8812 125.594 54.6031 123.197 64.6967C123.702 53.2784 119.286 52.0798 116.384 46.5914ZM28.1289 21.0422C30.5892 18.0772 31.4093 14.0398 35.3206 11.1379C27.3088 12.8412 20.6219 19.9067 18.7924 28.6123C21.3158 25.6474 25.6686 23.9441 28.1289 21.0422ZM106.48 22.3039C109.949 33.6591 118.087 31.1357 123.576 42.9956C123.008 39.0213 127.55 26.2151 116.889 18.3927C120.485 22.7455 119.412 30.8834 121.494 36.1825C117.33 27.2876 108.435 25.8366 106.48 22.3039ZM78.7227 28.8016C76.6409 27.9184 74.4329 27.3507 72.225 27.0352V28.4862C74.3068 28.8016 76.3255 29.3694 78.218 30.1264C78.4703 29.6848 78.6596 29.2432 78.7227 28.8016ZM77.0825 14.7338L77.5241 14.3553L76.704 13.9767L74.496 13.9137L73.9283 14.2922L72.6666 14.166V14.4814C73.4867 14.5445 74.3068 14.6076 74.9376 14.7338L76.01 14.6707L77.0825 14.7338ZM72.9189 61.7948C72.9189 61.4163 72.4142 61.0378 71.7203 60.7223H71.5941C71.5941 61.0378 71.5311 62.4887 71.5311 63.2457C72.3512 62.8041 72.9189 62.4256 72.9189 61.7948ZM47.622 34.1007C47.6851 33.8484 47.7482 33.5329 47.8113 33.2806C47.4959 33.3437 47.2435 33.4068 46.9281 33.3437L47.622 34.1007ZM37.4654 23.9441L42.6384 29.117C36.393 35.6147 32.8603 44.3204 32.7341 53.3415H25.4163C25.5425 42.3017 29.8322 31.8297 37.4654 23.9441ZM34.3112 64.192L33.8696 64.1289L33.428 63.6873L31.3462 63.4981L31.9771 64.3812L30.0846 64.0027L30.5892 63.5611L30.1476 63.1195L28.7598 63.6873L28.2551 64.5705L28.4444 66.6523L30.0215 70.4373L30.7785 71.6359L31.2201 71.7621L30.0215 69.4911L29.7691 68.3556L30.0215 68.1032L29.8322 67.4724L30.5261 67.5985L31.6617 69.2387L31.914 69.3649V68.1663L32.3556 68.4186L32.4818 69.0495L33.6173 69.3649L34.122 68.9864L34.3112 69.1126V69.9958L34.8159 70.6266L35.4467 70.7528L36.8346 73.0238L37.6547 73.2761L37.907 72.2037C39.358 74.5378 40.9982 76.7458 42.9538 78.7014L37.7809 83.8743C30.091 76.1189 25.666 65.7111 25.4163 54.7924H32.7341C32.7972 57.9466 33.3649 61.1639 34.3112 64.192ZM41.5028 54.7293C41.5028 55.4232 41.5659 56.1172 41.6921 56.8742L40.8089 57.0634L40.6197 57.9466L38.7271 60.3438L38.7902 63.6242L36.8977 64.2551H35.8252C34.8159 61.1639 34.3112 58.0097 34.185 54.7293H41.5028ZM43.143 75.3579L44.7832 76.3042L45.0987 76.5565L43.9001 77.7551C43.3323 77.1874 42.8276 76.6196 42.3229 75.9888L43.143 75.3579ZM49.83 36.3086L55.0029 41.4816C53.9305 42.6802 52.9842 44.005 52.2903 45.4559H51.9118L51.1548 45.6451H50.9024L50.1454 46.3391L51.1548 46.2129L52.0379 46.0237L51.8487 46.276L51.0917 46.7807H50.7132L49.5777 47.6638L48.5052 47.5377L46.9281 50.5027L47.2435 51.0704L46.3603 52.0798L46.2342 53.3415H42.9538C43.0169 46.9699 45.4772 40.9138 49.83 36.3086ZM55.1291 57.6943L55.5076 57.505L56.4539 58.199L56.0123 58.5144L57.0847 59.2083L57.0216 58.4513L57.5894 57.505L58.2202 58.1359L58.8511 59.0191L57.7155 59.3345L58.2202 60.3438L58.9772 59.9022L58.8511 59.5868L59.4188 59.2083L59.7343 57.6312C60.1758 58.5775 60.7436 59.4606 61.4375 60.2177L56.2646 65.3906C53.7412 62.741 52.1641 59.3345 51.7225 55.6756L52.795 56.8111H53.8043L55.1291 57.6943ZM47.6851 52.2059L47.8113 50.755L48.6945 50.2503L50.2716 50.5027L50.5239 50.755C50.3978 51.5751 50.3347 52.4583 50.2716 53.2784H48.5052L47.6851 52.2059ZM45.2879 57.2527L44.594 58.3251H43.3954L43.3323 58.262C43.143 57.1265 43.0169 55.9279 42.9538 54.7924H45.1617L44.6571 56.5588L45.2879 57.2527ZM50.1454 71.5098C49.6407 70.942 49.073 70.3743 48.6314 69.8065L48.8837 67.9771L48.1267 66.2107L47.9375 63.435L47.0543 61.7317L47.2435 60.6593L46.1711 58.6405L45.2879 58.199L45.6664 57.1265L45.2879 56.3064L45.6664 55.3602H46.6758L47.0543 54.7924H48.7576L49.0099 55.2971L48.6314 57.0004L48.4421 57.3158L49.073 58.7036L48.6314 58.956L48.316 58.5775L48.1898 58.7036L48.5052 59.5237L49.0099 60.47H49.2622L49.3884 59.5868L49.1361 59.2714V58.7036L49.073 57.505L49.4515 55.3602L49.073 54.7924H50.2716C50.5239 59.1452 52.2903 63.2457 55.3183 66.3999L50.1454 71.5098ZM94.1784 78.5752C100.424 72.1406 104.02 63.6242 104.209 54.7293H111.527C111.274 65.5798 106.921 75.9888 99.2882 83.7482L94.1784 78.5752ZM92.1597 76.5565L92.7274 75.9257L92.1597 73.0869L91.7812 72.9607L92.0335 72.456L90.8349 72.0775L90.5826 73.0869L90.4564 74.3486L90.2041 74.6009L87.9961 72.393C92.6013 67.5985 95.2508 61.3532 95.5031 54.7293H102.821C102.569 63.3088 99.162 71.4467 93.169 77.5659L92.1597 76.5565ZM85.7251 83.4327L86.419 81.9818L86.1666 81.351L87.176 80.4678V79.9631L86.2928 79.3953L86.9867 77.9444L88.0592 76.5565L86.9867 75.421H86.1666L85.662 74.6009C86.1036 74.2224 86.5452 73.8439 86.9237 73.4654L92.0966 78.6383C90.2041 80.4678 88.0592 82.108 85.7251 83.4327ZM84.7157 69.1757L84.0218 68.4817L84.5265 67.7878L85.2204 66.3999L84.968 66.0214L85.4096 65.0121L85.3465 64.0658L85.0942 63.1195L84.4634 62.9303L84.211 63.435L83.8325 63.3088C84.4003 62.4887 84.905 61.5424 85.3465 60.6593L85.9774 60.4069L86.3559 59.9022L86.5452 60.0915L86.9867 59.5868L86.6082 59.1452L86.9237 59.0821L87.4914 59.3345H88.6269L89.3209 58.956L91.0872 58.4513L90.7718 57.8835L90.6456 57.1896L91.5919 57.6312L91.9704 57.4419L91.7812 56.6849L90.5826 57.1265L89.3209 56.8742L88.3115 54.8555H93.926C93.6737 61.1008 91.1503 67.0308 86.8606 71.5098L86.1036 70.7528L86.419 69.7434L85.8512 67.4724L84.7157 69.1757ZM82.0662 41.6708L87.2391 36.4979C88.4377 37.8227 89.5101 39.2736 90.4564 40.7876L89.8255 40.9769L89.8886 42.1124L91.7812 43.311C92.2858 44.3835 92.6643 45.4559 92.9798 46.5914L92.6643 47.0961L91.9704 47.6008L91.7812 48.6732L91.2765 48.9255L90.898 49.4302L90.5195 49.241H89.8255L90.2041 48.6732L90.5195 47.2223L91.0242 46.9068L89.6363 45.5821L88.6269 45.9606L88.3746 46.9699L87.7438 47.6638L87.0498 47.0961L86.7975 46.4652L87.176 46.2129L87.3652 46.5914L87.6807 46.4652L87.5545 45.8344H87.1129V46.0867L86.7975 46.1498L85.2204 44.2573L84.6526 43.8157L84.8419 43.6264L85.3465 43.4372L84.8419 43.2479C84.8419 43.2479 84.2741 43.3741 84.211 43.3741L84.5265 43.8157H83.7064C83.2017 42.9956 82.697 42.3017 82.0662 41.6708ZM82.8863 69.8696L81.3091 69.428L80.8045 69.6172L79.9213 68.9233L79.1012 68.6079C79.5428 68.2925 79.9213 67.9771 80.2998 67.6616L81.6246 68.6079L82.6339 69.1126L83.1386 69.6172L82.8863 69.8696ZM80.1105 45.5821L80.7414 45.4559V45.3297L80.1105 44.8881L80.2998 43.5003L81.0568 42.6802C81.5615 43.2479 82.0031 43.8157 82.4447 44.4465L82.1923 45.2666L81.4984 44.762L80.9306 44.8881L81.183 45.3928H81.4353L81.1199 46.1498L80.9306 45.8344L80.1105 45.5821ZM88.8793 50.6288L90.2041 49.9349L91.5288 49.7456L91.8443 49.1148L92.6013 48.6732L92.9167 48.0424L93.169 46.9699C93.2952 47.3484 93.3583 47.7269 93.4844 48.1054L92.7905 50.1872V50.8812L93.6737 49.4302C93.863 50.6919 93.9891 52.0167 94.0522 53.2784H87.6176L87.4914 52.7106L88.2484 52.1429L88.3746 51.7643L88.69 51.512L89.5732 51.3858L89.6363 51.0073L88.8793 50.6288ZM90.3302 33.4698L92.0966 33.5329L92.5382 34.0376L92.3489 34.7946L94.8092 36.3086L95.3139 36.2456L98.405 39.8414L99.6667 39.3998C101.685 43.7526 102.758 48.547 102.821 53.3415H95.5031C95.5031 51.4489 95.2508 49.6195 94.8092 47.79L95.1246 47.3484L95.5662 45.0143L95.2508 42.554L94.3676 39.7152L92.3489 36.7502L92.8536 37.0026L93.1059 36.7502L91.4657 35.6147L91.3396 35.9932L92.9798 38.3274L93.926 40.2199L94.5569 42.1124L94.7461 43.3741L95.0616 45.519L94.4307 45.5821C94.4307 45.5821 93.7368 44.2573 93.4844 43.6895L93.7999 43.1849L93.169 42.3017V41.4816L92.7274 40.9138L92.1597 40.9769C91.9704 40.5984 91.7812 40.2199 91.5288 39.9045L91.9073 40.0937L92.0335 39.9675L91.8443 39.526L92.3489 39.2736L92.1597 39.0213L91.4657 39.2736L91.7181 38.1381L91.2765 37.8858L90.898 38.7689C90.0779 37.5703 89.1947 36.4348 88.2484 35.3624L90.3302 33.4698ZM99.6667 24.0703C107.237 31.9558 111.464 42.4278 111.59 53.3415H104.272C104.209 47.9162 102.947 42.554 100.487 37.6965L100.55 37.5703L101.055 37.8227L101.181 37.4442L99.856 35.1731L98.2789 33.0283L96.4494 31.5142C95.8186 30.7572 95.1877 30.0002 94.4938 29.2432L99.6667 24.0703ZM68.503 98.2576C93.1059 98.2576 113.041 78.2598 112.978 53.6569C112.978 30.8203 95.6924 11.7057 72.982 9.37158L72.9189 9.62392C72.8558 10.0655 72.7297 10.444 72.6666 10.8225C82.4447 11.7688 91.5919 16.0585 98.5943 22.9347L93.6737 27.8553L93.863 26.9721L93.2321 26.6567L92.412 26.7198L92.6013 26.152L92.0335 24.1333L90.8349 22.8086L86.9867 20.7899L86.6713 21.1684L85.9774 21.3576C87.3022 23.2502 87.9961 25.5212 87.9961 27.7922V28.6754L89.8886 31.0726L89.0055 31.2619L89.5732 32.1451L87.8699 33.8484L87.176 32.5867C86.8606 33.4698 86.419 34.353 85.9143 35.11L86.2928 35.4255L81.0568 40.5984C80.7414 40.283 80.426 40.0306 80.1105 39.7152C79.6059 39.9675 79.1012 40.1568 78.5965 40.3461L79.0381 40.6615L78.7858 40.9138L78.1549 41.2292L77.9026 41.8601L77.5241 41.4816L76.4516 41.8601L76.7671 42.3648L77.5241 42.1755L78.0287 42.2386L78.0918 41.9862L78.4703 41.797L78.5965 41.6077L79.2904 41.4185H79.7951L80.1105 41.6708L78.0918 43.7526L77.9657 43.5634L75.8208 43.9419L75.3161 44.4465L74.8745 44.5096L76.1993 43.2479L75.6946 42.9956L74.4329 44.6358L74.8114 44.5727V45.2036L75.253 45.3928L75.3161 46.0237L74.5591 45.8975L73.8021 46.0237L71.9096 45.0774C71.9096 45.0774 71.7834 50.1241 71.7834 52.6475C76.1993 54.1616 80.9306 56.3064 80.9306 61.984C80.9937 64.3812 79.732 66.6523 77.7133 67.9771L77.5872 68.0401L77.461 68.1663C75.6946 69.3649 73.3605 69.9958 71.3418 70.6266L71.2787 74.6009C74.496 76.178 78.3442 78.5122 77.9657 85.0729C77.9026 86.7131 77.2717 87.1547 76.7671 87.2809C74.8745 87.7225 72.9189 88.0379 71.0264 88.1641V89.615C79.3535 89.0473 87.176 85.5776 93.2321 79.8369L98.405 85.0098C81.8138 101.033 55.5076 101.033 38.8533 85.136L44.0262 79.9631C50.0192 85.5776 57.7786 88.9842 65.9796 89.615V88.1641C58.1571 87.5332 50.8393 84.3159 45.1617 78.8907L46.4865 77.5028L48.379 77.6921L49.3884 76.6196L52.0379 76.7458L52.4165 75.7995L52.2903 75.421C56.2015 78.386 60.8698 80.2785 65.7904 80.7832V79.3323C60.3651 78.7014 55.3183 76.4304 51.2809 72.7084L56.4539 67.5355C57.7155 68.671 59.1034 69.6172 60.6805 70.3743C60.8067 69.8696 60.9329 69.428 61.1852 68.9864C59.8604 68.2925 58.5987 67.4724 57.5263 66.5261L62.6992 61.3532C63.5193 61.984 64.4656 62.5518 65.4119 62.8672V61.2901C64.781 61.0378 64.2132 60.6593 63.7086 60.2807L65.1595 58.8298C64.6548 58.7036 64.1502 58.5144 63.6455 58.3251L62.6361 59.3345C62.1315 58.7667 61.6899 58.1359 61.3745 57.505C60.4913 57.1265 59.6081 56.6849 58.788 56.1172C55.7599 54.2877 53.9305 50.9442 53.9936 47.3484C53.9305 44.9512 54.6244 42.554 56.0754 40.6615L50.9024 35.4886C54.6875 31.8297 59.545 29.4955 64.7179 28.6754V27.2245C59.1665 28.0446 53.9305 30.568 49.8931 34.4792L49.0099 33.596C48.8206 33.9114 48.5683 34.353 48.316 34.9208L48.8837 35.4886C44.2786 40.3461 41.6921 46.7807 41.5659 53.4676H34.185C34.3112 44.8251 37.6547 36.561 43.6477 30.2525L45.9818 32.5867H46.2973C46.7389 32.5236 47.2435 32.3974 47.622 32.2082L44.6571 29.2432C46.2342 27.7292 47.9375 26.3413 49.7669 25.1427C49.8931 24.7642 49.9562 24.3857 50.1454 24.0703C50.4608 23.5656 50.8393 23.0609 51.2809 22.5562C48.5052 24.0703 45.9818 25.9628 43.7108 28.1708L38.5379 22.9978C45.4772 16.2478 54.4982 12.0211 64.2133 11.0118C64.2133 10.8225 64.1502 10.6964 64.1502 10.6964C64.0871 10.3178 64.024 10.0024 63.9609 9.56084C39.4211 12.0842 21.6943 33.9745 24.2808 58.4513C26.678 81.0986 45.7295 98.3207 68.503 98.2576ZM90.3933 21.2315L89.9517 20.5375L89.0055 20.0329L88.2484 20.6006L89.1947 21.1053L90.2671 21.8623L90.3933 21.2315ZM85.9774 41.9232L86.0405 42.4909L87.3022 42.1124L87.6807 41.3554L86.7975 40.2199L87.2391 39.526L88.4377 40.3461L88.6269 40.1568L88.3746 39.9675L88.1223 39.4629L88.6269 39.2105L88.1223 38.5797L86.9867 39.1474L86.6082 39.8414L86.3559 40.4722L86.8606 41.2923L86.6713 41.6708L85.9774 41.9232ZM33.1126 74.7271L33.1757 74.4117L32.5448 72.9607L31.7878 72.6453L33.1126 74.7271ZM62.9516 47.2223C62.9516 48.484 63.7086 49.304 65.0333 50.0611V49.4933L64.2133 48.6101L64.6548 47.79L65.0333 47.6638C64.9703 46.2129 64.9703 44.6358 64.9703 44.3835H64.9072C63.6455 45.1405 63.0146 46.0237 62.9516 47.2223Z" fill="#8A8A8A"/>
<path d="M71.1713 78.9582C73.4423 80.0937 75.5872 81.7339 76.4704 84.762C76.8489 79.7152 74.0101 77.5703 71.2344 76.0563L71.1713 78.9582ZM86.4377 27.7967C86.4377 23.1915 83.0942 18.1448 74.9564 16.3784C74.1363 16.2522 73.3162 16.1261 72.4961 16.063C72.4961 16.7569 72.433 18.334 72.433 18.334C72.433 18.8387 72.3699 20.6682 72.3699 21.0467C72.8746 21.1097 73.4423 21.1728 73.947 21.2359C78.6783 22.3714 80.3816 25.0841 80.3816 27.7336C80.3816 32.0864 76.6596 33.7266 72.1176 34.9883L70.6035 35.3668C69.2157 35.6823 67.7647 36.0608 66.3769 36.4393C65.8722 36.5654 65.3675 36.6916 64.8628 36.8809C59.8161 38.3949 55.4633 40.8552 55.4633 47.1006C55.4633 53.3459 60.4469 55.617 65.3044 57.131C65.3044 55.3646 65.2413 53.5352 65.1783 51.7688C62.9703 50.7594 61.5194 49.4347 61.5194 47.2267C61.5194 45.0188 62.9072 43.7571 64.989 42.8108C65.4306 42.6216 65.9353 42.4323 66.503 42.243C67.7016 41.8015 69.0895 41.486 70.4774 41.1075L71.9914 40.729C78.8045 39.0888 86.5008 36.9439 86.4377 27.7967ZM61.8979 71.5142C61.8979 74.0376 63.7273 75.3624 65.5568 76.4348C65.5568 75.9932 65.4937 72.1451 65.4937 72.082C65.5568 71.325 66.2507 70.8203 66.8815 70.568C67.8278 70.1264 68.8372 69.7479 69.8465 69.4324C70.4143 69.2432 70.8559 69.0539 71.3605 68.9278C75.0825 67.7923 79.3723 66.4044 79.3723 61.8623C79.3723 57.3202 75.7134 55.4908 71.676 54.1029C71.6129 55.5539 71.6129 57.6357 71.5498 59.0866C73.2531 59.7174 74.3886 60.5375 74.3886 61.8623C74.3886 63.5025 72.6853 64.3857 71.4236 64.8904C70.9189 65.0796 70.1619 65.332 69.9096 65.395C68.9002 65.7105 67.8909 66.0259 66.8815 66.4044C66.3769 66.5937 65.8722 66.7829 65.3675 67.0352C63.7273 67.9184 61.8979 69.2432 61.8979 71.5142ZM64.4212 16.7569C62.9072 17.2616 61.3932 17.8294 59.9422 18.5864C58.3651 19.091 56.0941 19.2172 53.76 21.7406C53.003 22.6238 52.309 23.57 51.6151 24.5163C50.9212 25.5257 50.8581 27.1659 50.3534 27.986C49.5964 29.2476 49.7857 30.0047 49.7857 30.0047C49.6595 30.5724 49.3441 31.1402 48.9656 31.5818C48.2085 32.465 47.073 32.9065 45.9375 32.7173C47.0099 33.222 48.4609 32.528 48.4609 32.528C48.2085 33.222 48.0193 33.9159 47.8931 34.6098C49.0917 31.8972 50.1642 30.9509 50.5427 30.6355C51.0473 30.7617 52.1198 30.6986 54.0754 29.5631C56.2833 28.3014 59.6268 26.2196 60.5731 24.8948C61.5824 23.57 62.9072 22.4976 64.4843 21.9298C64.4843 20.0373 64.4212 18.2709 64.4212 16.7569ZM55.0847 25.1472L53.9492 25.3995L55.3371 23.1284L56.9142 23.1915L55.0847 25.1472Z" fill="#8A8A8A"/>
<path d="M69.0103 71.1966C68.8211 71.2597 68.2533 71.512 67.8748 71.6382C67.4963 71.7644 67.0547 71.9536 67.0547 72.0798C67.0547 72.0798 67.4332 91.5098 67.4332 91.8883C67.4332 95.8626 69.4519 95.9257 69.4519 91.8883C69.4519 91.636 69.8935 70.8812 69.8935 70.8812C69.8935 70.8812 69.3257 71.0704 69.0103 71.1966ZM66.8654 64.762C67.4963 64.5727 68.1271 64.3204 68.6949 64.1942C69.1365 64.0681 69.515 63.9419 69.9566 63.8157C69.9566 62.6171 70.3351 45.7105 70.3982 42.6824C69.0734 42.9978 67.7486 43.3763 66.4869 43.8179C66.55 46.089 66.8654 62.9325 66.8654 64.762ZM68.5687 0.226563C62.8911 0.226563 65.2883 8.67988 65.7299 11.4556C65.7299 11.5818 66.1715 30.5702 66.2977 34.923C67.1809 34.6707 68.0009 34.4814 68.8841 34.2922L70.5874 33.8506C70.6505 29.6239 71.0921 11.5187 71.0921 11.3925C71.4706 8.49063 74.4356 0.226563 68.5687 0.226563Z" fill="#8A8A8A"/>
</g>
<defs>
<clipPath id="clip0_1628_55066">
<rect width="376.209" height="113.615" fill="white" transform="translate(0.304688 0.230469)"/>
</clipPath>
</defs>
</svg>
